<mxfile host="Electron" agent="Mozilla/5.0 (Windows NT 10.0; Win64; x64) AppleWebKit/537.36 (KHTML, like Gecko) draw.io/24.7.17 Chrome/128.0.6613.36 Electron/32.0.1 Safari/537.36" version="24.7.17" pages="2">
  <diagram name="‫עמוד-1‬" id="mV8jAsiJxDEJBpSy-MRg">
    <mxGraphModel dx="1793" dy="1045" grid="1" gridSize="10" guides="1" tooltips="1" connect="1" arrows="1" fold="1" page="1" pageScale="1" pageWidth="827" pageHeight="1169" math="0" shadow="0">
      <root>
        <mxCell id="0" />
        <mxCell id="1" parent="0" />
        <mxCell id="KNMOKKNkH9T5p9I5OsQf-1" value="&lt;font style=&quot;&quot; size=&quot;1&quot;&gt;&lt;span style=&quot;font-size: 20px;&quot;&gt;9&lt;/span&gt;&lt;/font&gt;" style="ellipse;whiteSpace=wrap;html=1;aspect=fixed;fillColor=#086E67;strokeColor=#3039BF;gradientColor=#2626E0;fontStyle=1" vertex="1" parent="1">
          <mxGeometry x="880" y="640" width="80" height="80" as="geometry" />
        </mxCell>
        <mxCell id="KNMOKKNkH9T5p9I5OsQf-3" value="&lt;font style=&quot;&quot; size=&quot;1&quot;&gt;&lt;span style=&quot;font-size: 20px;&quot;&gt;2&lt;/span&gt;&lt;/font&gt;" style="ellipse;whiteSpace=wrap;html=1;aspect=fixed;fillColor=#9C6616;strokeColor=#3039BF;gradientColor=#2626E0;fontStyle=1" vertex="1" parent="1">
          <mxGeometry x="760" y="1040" width="80" height="80" as="geometry" />
        </mxCell>
        <mxCell id="KNMOKKNkH9T5p9I5OsQf-4" value="&lt;font style=&quot;&quot; size=&quot;1&quot;&gt;&lt;span style=&quot;font-size: 20px;&quot;&gt;1&lt;/span&gt;&lt;/font&gt;" style="ellipse;whiteSpace=wrap;html=1;aspect=fixed;fillColor=#086E67;strokeColor=#3039BF;gradientColor=#2626E0;fontStyle=1" vertex="1" parent="1">
          <mxGeometry x="600" y="920" width="80" height="80" as="geometry" />
        </mxCell>
        <mxCell id="KNMOKKNkH9T5p9I5OsQf-5" value="&lt;font style=&quot;&quot; size=&quot;1&quot;&gt;&lt;span style=&quot;font-size: 20px;&quot;&gt;3&lt;/span&gt;&lt;/font&gt;" style="ellipse;whiteSpace=wrap;html=1;aspect=fixed;fillColor=#086E67;strokeColor=#3039BF;gradientColor=#2626E0;fontStyle=1" vertex="1" parent="1">
          <mxGeometry x="960" y="1000" width="80" height="80" as="geometry" />
        </mxCell>
        <mxCell id="KNMOKKNkH9T5p9I5OsQf-6" value="&lt;font style=&quot;&quot; size=&quot;1&quot;&gt;&lt;span style=&quot;font-size: 20px;&quot;&gt;11&lt;/span&gt;&lt;/font&gt;" style="ellipse;whiteSpace=wrap;html=1;aspect=fixed;fillColor=#086E67;strokeColor=#3039BF;gradientColor=#2626E0;fontStyle=1" vertex="1" parent="1">
          <mxGeometry x="520" y="440" width="80" height="80" as="geometry" />
        </mxCell>
        <mxCell id="KNMOKKNkH9T5p9I5OsQf-7" value="&lt;font style=&quot;&quot; size=&quot;1&quot;&gt;&lt;span style=&quot;font-size: 20px;&quot;&gt;16&lt;/span&gt;&lt;/font&gt;" style="ellipse;whiteSpace=wrap;html=1;aspect=fixed;fillColor=#086E67;strokeColor=#3039BF;gradientColor=#2626E0;fontStyle=1" vertex="1" parent="1">
          <mxGeometry x="800" y="320" width="80" height="80" as="geometry" />
        </mxCell>
        <mxCell id="KNMOKKNkH9T5p9I5OsQf-8" value="&lt;font style=&quot;&quot; size=&quot;1&quot;&gt;&lt;span style=&quot;font-size: 20px;&quot;&gt;12&lt;/span&gt;&lt;/font&gt;" style="ellipse;whiteSpace=wrap;html=1;aspect=fixed;fillColor=#086E67;strokeColor=#3039BF;gradientColor=#2626E0;fontStyle=1" vertex="1" parent="1">
          <mxGeometry x="720" y="440" width="80" height="80" as="geometry" />
        </mxCell>
        <mxCell id="KNMOKKNkH9T5p9I5OsQf-9" value="&lt;font style=&quot;&quot; size=&quot;1&quot;&gt;&lt;span style=&quot;font-size: 20px;&quot;&gt;5&lt;/span&gt;&lt;/font&gt;" style="ellipse;whiteSpace=wrap;html=1;aspect=fixed;fillColor=#086E67;strokeColor=#3039BF;gradientColor=#2626E0;fontStyle=1" vertex="1" parent="1">
          <mxGeometry x="760" y="800" width="80" height="80" as="geometry" />
        </mxCell>
        <mxCell id="KNMOKKNkH9T5p9I5OsQf-10" value="&lt;font style=&quot;&quot; size=&quot;1&quot;&gt;&lt;span style=&quot;font-size: 20px;&quot;&gt;8&lt;/span&gt;&lt;/font&gt;" style="ellipse;whiteSpace=wrap;html=1;aspect=fixed;fillColor=#9C6616;strokeColor=#3039BF;gradientColor=#2626E0;fontStyle=1" vertex="1" parent="1">
          <mxGeometry x="530" y="610" width="80" height="80" as="geometry" />
        </mxCell>
        <mxCell id="KNMOKKNkH9T5p9I5OsQf-11" value="&lt;font style=&quot;&quot; size=&quot;1&quot;&gt;&lt;span style=&quot;font-size: 20px;&quot;&gt;15&lt;/span&gt;&lt;/font&gt;" style="ellipse;whiteSpace=wrap;html=1;aspect=fixed;fillColor=#086E67;strokeColor=#3039BF;gradientColor=#2626E0;fontStyle=1" vertex="1" parent="1">
          <mxGeometry x="680" y="280" width="80" height="80" as="geometry" />
        </mxCell>
        <mxCell id="KNMOKKNkH9T5p9I5OsQf-12" value="&lt;font style=&quot;&quot; size=&quot;1&quot;&gt;&lt;span style=&quot;font-size: 20px;&quot;&gt;20&lt;/span&gt;&lt;/font&gt;" style="ellipse;whiteSpace=wrap;html=1;aspect=fixed;fillColor=#086E67;strokeColor=#3039BF;gradientColor=#2626E0;fontStyle=1" vertex="1" parent="1">
          <mxGeometry x="1160" y="80" width="80" height="80" as="geometry" />
        </mxCell>
        <mxCell id="KNMOKKNkH9T5p9I5OsQf-18" value="&lt;font style=&quot;&quot; size=&quot;1&quot;&gt;&lt;span style=&quot;font-size: 20px;&quot;&gt;14&lt;/span&gt;&lt;/font&gt;" style="ellipse;whiteSpace=wrap;html=1;aspect=fixed;fillColor=#086E67;strokeColor=#3039BF;gradientColor=#2626E0;fontStyle=1" vertex="1" parent="1">
          <mxGeometry x="1000" y="360" width="80" height="80" as="geometry" />
        </mxCell>
        <mxCell id="KNMOKKNkH9T5p9I5OsQf-19" value="&lt;font style=&quot;&quot; size=&quot;1&quot;&gt;&lt;span style=&quot;font-size: 20px;&quot;&gt;13&lt;/span&gt;&lt;/font&gt;" style="ellipse;whiteSpace=wrap;html=1;aspect=fixed;fillColor=#086E67;strokeColor=#3039BF;gradientColor=#2626E0;fontStyle=1" vertex="1" parent="1">
          <mxGeometry x="920" y="470" width="80" height="80" as="geometry" />
        </mxCell>
        <mxCell id="KNMOKKNkH9T5p9I5OsQf-20" value="&lt;font style=&quot;&quot; size=&quot;1&quot;&gt;&lt;span style=&quot;font-size: 20px;&quot;&gt;6&lt;/span&gt;&lt;/font&gt;" style="ellipse;whiteSpace=wrap;html=1;aspect=fixed;fillColor=#086E67;strokeColor=#3039BF;gradientColor=#2626E0;fontStyle=1" vertex="1" parent="1">
          <mxGeometry x="1201" y="720" width="80" height="80" as="geometry" />
        </mxCell>
        <mxCell id="KNMOKKNkH9T5p9I5OsQf-21" value="&lt;font style=&quot;&quot; size=&quot;1&quot;&gt;&lt;span style=&quot;font-size: 20px;&quot;&gt;7&lt;/span&gt;&lt;/font&gt;" style="ellipse;whiteSpace=wrap;html=1;aspect=fixed;fillColor=#086E67;strokeColor=#3039BF;gradientColor=#2626E0;fontStyle=1" vertex="1" parent="1">
          <mxGeometry x="200" y="600" width="80" height="80" as="geometry" />
        </mxCell>
        <mxCell id="KNMOKKNkH9T5p9I5OsQf-22" value="&lt;font style=&quot;&quot; size=&quot;1&quot;&gt;&lt;span style=&quot;font-size: 20px;&quot;&gt;18&lt;/span&gt;&lt;/font&gt;" style="ellipse;whiteSpace=wrap;html=1;aspect=fixed;fillColor=#9C6616;strokeColor=#3039BF;gradientColor=#2626E0;fontStyle=1" vertex="1" parent="1">
          <mxGeometry x="200" y="160" width="80" height="80" as="geometry" />
        </mxCell>
        <mxCell id="KNMOKKNkH9T5p9I5OsQf-23" value="&lt;font style=&quot;&quot; size=&quot;1&quot;&gt;&lt;span style=&quot;font-size: 20px;&quot;&gt;17&lt;/span&gt;&lt;/font&gt;" style="ellipse;whiteSpace=wrap;html=1;aspect=fixed;fillColor=#9C6616;strokeColor=#3039BF;gradientColor=#2626E0;fontStyle=1" vertex="1" parent="1">
          <mxGeometry x="1201" y="320" width="80" height="80" as="geometry" />
        </mxCell>
        <mxCell id="KNMOKKNkH9T5p9I5OsQf-24" value="&lt;font style=&quot;&quot; size=&quot;1&quot;&gt;&lt;span style=&quot;font-size: 20px;&quot;&gt;19&lt;/span&gt;&lt;/font&gt;" style="ellipse;whiteSpace=wrap;html=1;aspect=fixed;fillColor=#086E67;strokeColor=#3039BF;gradientColor=#2626E0;fontStyle=1" vertex="1" parent="1">
          <mxGeometry x="520" y="200" width="80" height="80" as="geometry" />
        </mxCell>
        <mxCell id="KNMOKKNkH9T5p9I5OsQf-26" value="&lt;font style=&quot;&quot; size=&quot;1&quot;&gt;&lt;span style=&quot;font-size: 20px;&quot;&gt;10&lt;/span&gt;&lt;/font&gt;" style="ellipse;whiteSpace=wrap;html=1;aspect=fixed;fillColor=#086E67;strokeColor=#3039BF;gradientColor=#2626E0;fontStyle=1" vertex="1" parent="1">
          <mxGeometry x="360" y="480" width="80" height="80" as="geometry" />
        </mxCell>
        <mxCell id="KNMOKKNkH9T5p9I5OsQf-27" value="&lt;font style=&quot;&quot; size=&quot;1&quot;&gt;&lt;span style=&quot;font-size: 20px;&quot;&gt;0&lt;/span&gt;&lt;/font&gt;" style="ellipse;whiteSpace=wrap;html=1;aspect=fixed;fillColor=#086E67;strokeColor=#3039BF;gradientColor=#2626E0;fontStyle=1" vertex="1" parent="1">
          <mxGeometry x="400" y="1040" width="80" height="80" as="geometry" />
        </mxCell>
        <mxCell id="KNMOKKNkH9T5p9I5OsQf-28" value="&lt;font style=&quot;&quot; size=&quot;1&quot;&gt;&lt;span style=&quot;font-size: 20px;&quot;&gt;4&lt;/span&gt;&lt;/font&gt;" style="ellipse;whiteSpace=wrap;html=1;aspect=fixed;fillColor=#086E67;strokeColor=#3039BF;gradientColor=#2626E0;fontStyle=1" vertex="1" parent="1">
          <mxGeometry x="40" y="800" width="80" height="80" as="geometry" />
        </mxCell>
        <mxCell id="KNMOKKNkH9T5p9I5OsQf-39" value="" style="endArrow=none;html=1;rounded=0;strokeColor=#08612E;strokeWidth=6;entryX=1;entryY=1;entryDx=0;entryDy=0;exitX=0;exitY=0;exitDx=0;exitDy=0;" edge="1" parent="1" source="KNMOKKNkH9T5p9I5OsQf-27" target="KNMOKKNkH9T5p9I5OsQf-28">
          <mxGeometry width="50" height="50" relative="1" as="geometry">
            <mxPoint x="622" y="1008" as="sourcePoint" />
            <mxPoint x="460" y="1070" as="targetPoint" />
          </mxGeometry>
        </mxCell>
        <mxCell id="KNMOKKNkH9T5p9I5OsQf-40" value="&lt;font style=&quot;font-size: 16px;&quot;&gt;&lt;b&gt;5&lt;/b&gt;&lt;/font&gt;" style="edgeLabel;html=1;align=center;verticalAlign=middle;resizable=0;points=[];" vertex="1" connectable="0" parent="KNMOKKNkH9T5p9I5OsQf-39">
          <mxGeometry x="0.0413" y="-2" relative="1" as="geometry">
            <mxPoint as="offset" />
          </mxGeometry>
        </mxCell>
        <mxCell id="KNMOKKNkH9T5p9I5OsQf-43" value="" style="endArrow=none;html=1;rounded=0;strokeColor=#08612E;strokeWidth=6;entryX=0;entryY=1;entryDx=0;entryDy=0;exitX=1;exitY=0.5;exitDx=0;exitDy=0;" edge="1" parent="1" source="KNMOKKNkH9T5p9I5OsQf-27" target="KNMOKKNkH9T5p9I5OsQf-4">
          <mxGeometry width="50" height="50" relative="1" as="geometry">
            <mxPoint x="392" y="1042" as="sourcePoint" />
            <mxPoint x="128" y="868" as="targetPoint" />
          </mxGeometry>
        </mxCell>
        <mxCell id="KNMOKKNkH9T5p9I5OsQf-44" value="&lt;font style=&quot;font-size: 16px;&quot;&gt;&lt;b&gt;3&lt;/b&gt;&lt;/font&gt;" style="edgeLabel;html=1;align=center;verticalAlign=middle;resizable=0;points=[];" vertex="1" connectable="0" parent="KNMOKKNkH9T5p9I5OsQf-43">
          <mxGeometry x="0.0413" y="-2" relative="1" as="geometry">
            <mxPoint as="offset" />
          </mxGeometry>
        </mxCell>
        <mxCell id="KNMOKKNkH9T5p9I5OsQf-46" value="" style="endArrow=none;html=1;rounded=0;strokeColor=#08612E;strokeWidth=6;entryX=0;entryY=1;entryDx=0;entryDy=0;exitX=1;exitY=0;exitDx=0;exitDy=0;" edge="1" parent="1" source="KNMOKKNkH9T5p9I5OsQf-4" target="KNMOKKNkH9T5p9I5OsQf-9">
          <mxGeometry width="50" height="50" relative="1" as="geometry">
            <mxPoint x="460" y="1070" as="sourcePoint" />
            <mxPoint x="621" y="1008" as="targetPoint" />
          </mxGeometry>
        </mxCell>
        <mxCell id="KNMOKKNkH9T5p9I5OsQf-47" value="&lt;font style=&quot;font-size: 16px;&quot;&gt;&lt;b&gt;3&lt;/b&gt;&lt;/font&gt;" style="edgeLabel;html=1;align=center;verticalAlign=middle;resizable=0;points=[];" vertex="1" connectable="0" parent="KNMOKKNkH9T5p9I5OsQf-46">
          <mxGeometry x="0.0413" y="-2" relative="1" as="geometry">
            <mxPoint as="offset" />
          </mxGeometry>
        </mxCell>
        <mxCell id="KNMOKKNkH9T5p9I5OsQf-48" value="" style="endArrow=none;html=1;rounded=0;strokeColor=#08612E;strokeWidth=6;entryX=0;entryY=0;entryDx=0;entryDy=0;exitX=1;exitY=1;exitDx=0;exitDy=0;" edge="1" parent="1" source="KNMOKKNkH9T5p9I5OsQf-4" target="KNMOKKNkH9T5p9I5OsQf-3">
          <mxGeometry width="50" height="50" relative="1" as="geometry">
            <mxPoint x="678" y="952" as="sourcePoint" />
            <mxPoint x="786" y="878" as="targetPoint" />
          </mxGeometry>
        </mxCell>
        <mxCell id="KNMOKKNkH9T5p9I5OsQf-49" value="&lt;font style=&quot;font-size: 16px;&quot;&gt;&lt;b&gt;3&lt;/b&gt;&lt;/font&gt;" style="edgeLabel;html=1;align=center;verticalAlign=middle;resizable=0;points=[];" vertex="1" connectable="0" parent="KNMOKKNkH9T5p9I5OsQf-48">
          <mxGeometry x="0.0413" y="-2" relative="1" as="geometry">
            <mxPoint as="offset" />
          </mxGeometry>
        </mxCell>
        <mxCell id="KNMOKKNkH9T5p9I5OsQf-50" value="" style="endArrow=none;html=1;rounded=0;strokeColor=#08612E;strokeWidth=6;entryX=0;entryY=1;entryDx=0;entryDy=0;exitX=1;exitY=0.5;exitDx=0;exitDy=0;" edge="1" parent="1" source="KNMOKKNkH9T5p9I5OsQf-3" target="KNMOKKNkH9T5p9I5OsQf-5">
          <mxGeometry width="50" height="50" relative="1" as="geometry">
            <mxPoint x="678" y="1008" as="sourcePoint" />
            <mxPoint x="792" y="1082" as="targetPoint" />
          </mxGeometry>
        </mxCell>
        <mxCell id="KNMOKKNkH9T5p9I5OsQf-51" value="&lt;font style=&quot;font-size: 16px;&quot;&gt;&lt;b&gt;2&lt;/b&gt;&lt;/font&gt;" style="edgeLabel;html=1;align=center;verticalAlign=middle;resizable=0;points=[];" vertex="1" connectable="0" parent="KNMOKKNkH9T5p9I5OsQf-50">
          <mxGeometry x="0.0413" y="-2" relative="1" as="geometry">
            <mxPoint as="offset" />
          </mxGeometry>
        </mxCell>
        <mxCell id="KNMOKKNkH9T5p9I5OsQf-52" value="" style="endArrow=none;html=1;rounded=0;strokeColor=#08612E;strokeWidth=6;entryX=0;entryY=0;entryDx=0;entryDy=0;exitX=1;exitY=1;exitDx=0;exitDy=0;" edge="1" parent="1" source="KNMOKKNkH9T5p9I5OsQf-9" target="KNMOKKNkH9T5p9I5OsQf-5">
          <mxGeometry width="50" height="50" relative="1" as="geometry">
            <mxPoint x="860" y="1110" as="sourcePoint" />
            <mxPoint x="962" y="1087" as="targetPoint" />
          </mxGeometry>
        </mxCell>
        <mxCell id="KNMOKKNkH9T5p9I5OsQf-53" value="&lt;font style=&quot;font-size: 16px;&quot;&gt;&lt;b&gt;4&lt;/b&gt;&lt;/font&gt;" style="edgeLabel;html=1;align=center;verticalAlign=middle;resizable=0;points=[];" vertex="1" connectable="0" parent="KNMOKKNkH9T5p9I5OsQf-52">
          <mxGeometry x="0.0413" y="-2" relative="1" as="geometry">
            <mxPoint as="offset" />
          </mxGeometry>
        </mxCell>
        <mxCell id="KNMOKKNkH9T5p9I5OsQf-54" value="" style="endArrow=none;html=1;rounded=0;strokeColor=#08612E;strokeWidth=6;entryX=0;entryY=1;entryDx=0;entryDy=0;exitX=1;exitY=0;exitDx=0;exitDy=0;" edge="1" parent="1" source="KNMOKKNkH9T5p9I5OsQf-9" target="KNMOKKNkH9T5p9I5OsQf-1">
          <mxGeometry width="50" height="50" relative="1" as="geometry">
            <mxPoint x="678" y="952" as="sourcePoint" />
            <mxPoint x="786" y="878" as="targetPoint" />
          </mxGeometry>
        </mxCell>
        <mxCell id="KNMOKKNkH9T5p9I5OsQf-55" value="&lt;font style=&quot;font-size: 16px;&quot;&gt;&lt;b&gt;3&lt;/b&gt;&lt;/font&gt;" style="edgeLabel;html=1;align=center;verticalAlign=middle;resizable=0;points=[];" vertex="1" connectable="0" parent="KNMOKKNkH9T5p9I5OsQf-54">
          <mxGeometry x="0.0413" y="-2" relative="1" as="geometry">
            <mxPoint as="offset" />
          </mxGeometry>
        </mxCell>
        <mxCell id="KNMOKKNkH9T5p9I5OsQf-56" value="" style="endArrow=none;html=1;rounded=0;strokeColor=#08612E;strokeWidth=6;entryX=1;entryY=0.5;entryDx=0;entryDy=0;exitX=0;exitY=0;exitDx=0;exitDy=0;" edge="1" parent="1" source="KNMOKKNkH9T5p9I5OsQf-20" target="KNMOKKNkH9T5p9I5OsQf-1">
          <mxGeometry width="50" height="50" relative="1" as="geometry">
            <mxPoint x="843" y="822" as="sourcePoint" />
            <mxPoint x="882" y="708" as="targetPoint" />
          </mxGeometry>
        </mxCell>
        <mxCell id="KNMOKKNkH9T5p9I5OsQf-57" value="&lt;font style=&quot;font-size: 16px;&quot;&gt;&lt;b&gt;5&lt;/b&gt;&lt;/font&gt;" style="edgeLabel;html=1;align=center;verticalAlign=middle;resizable=0;points=[];" vertex="1" connectable="0" parent="KNMOKKNkH9T5p9I5OsQf-56">
          <mxGeometry x="0.0413" y="-2" relative="1" as="geometry">
            <mxPoint as="offset" />
          </mxGeometry>
        </mxCell>
        <mxCell id="KNMOKKNkH9T5p9I5OsQf-58" value="" style="endArrow=none;html=1;rounded=0;strokeColor=#08612E;strokeWidth=6;entryX=0;entryY=1;entryDx=0;entryDy=0;exitX=0.5;exitY=0;exitDx=0;exitDy=0;" edge="1" parent="1" source="KNMOKKNkH9T5p9I5OsQf-1" target="KNMOKKNkH9T5p9I5OsQf-19">
          <mxGeometry width="50" height="50" relative="1" as="geometry">
            <mxPoint x="980" y="643" as="sourcePoint" />
            <mxPoint x="1082" y="620" as="targetPoint" />
          </mxGeometry>
        </mxCell>
        <mxCell id="KNMOKKNkH9T5p9I5OsQf-59" value="&lt;font style=&quot;font-size: 16px;&quot;&gt;&lt;b&gt;2&lt;/b&gt;&lt;/font&gt;" style="edgeLabel;html=1;align=center;verticalAlign=middle;resizable=0;points=[];" vertex="1" connectable="0" parent="KNMOKKNkH9T5p9I5OsQf-58">
          <mxGeometry x="0.0413" y="-2" relative="1" as="geometry">
            <mxPoint as="offset" />
          </mxGeometry>
        </mxCell>
        <mxCell id="KNMOKKNkH9T5p9I5OsQf-61" value="" style="endArrow=none;html=1;rounded=0;strokeColor=#08612E;strokeWidth=6;entryX=1;entryY=0;entryDx=0;entryDy=0;exitX=0;exitY=1;exitDx=0;exitDy=0;" edge="1" parent="1" source="KNMOKKNkH9T5p9I5OsQf-18" target="KNMOKKNkH9T5p9I5OsQf-19">
          <mxGeometry width="50" height="50" relative="1" as="geometry">
            <mxPoint x="910" y="640" as="sourcePoint" />
            <mxPoint x="942" y="548" as="targetPoint" />
          </mxGeometry>
        </mxCell>
        <mxCell id="KNMOKKNkH9T5p9I5OsQf-62" value="&lt;font style=&quot;font-size: 16px;&quot;&gt;&lt;b&gt;1&lt;/b&gt;&lt;/font&gt;" style="edgeLabel;html=1;align=center;verticalAlign=middle;resizable=0;points=[];" vertex="1" connectable="0" parent="KNMOKKNkH9T5p9I5OsQf-61">
          <mxGeometry x="0.0413" y="-2" relative="1" as="geometry">
            <mxPoint as="offset" />
          </mxGeometry>
        </mxCell>
        <mxCell id="KNMOKKNkH9T5p9I5OsQf-63" value="" style="endArrow=none;html=1;rounded=0;strokeColor=#08612E;strokeWidth=6;entryX=0;entryY=1;entryDx=0;entryDy=0;exitX=1;exitY=0;exitDx=0;exitDy=0;" edge="1" parent="1" source="KNMOKKNkH9T5p9I5OsQf-28" target="KNMOKKNkH9T5p9I5OsQf-21">
          <mxGeometry width="50" height="50" relative="1" as="geometry">
            <mxPoint x="838" y="878" as="sourcePoint" />
            <mxPoint x="981" y="1022" as="targetPoint" />
          </mxGeometry>
        </mxCell>
        <mxCell id="KNMOKKNkH9T5p9I5OsQf-64" value="&lt;font style=&quot;font-size: 16px;&quot;&gt;&lt;b&gt;4&lt;/b&gt;&lt;/font&gt;" style="edgeLabel;html=1;align=center;verticalAlign=middle;resizable=0;points=[];" vertex="1" connectable="0" parent="KNMOKKNkH9T5p9I5OsQf-63">
          <mxGeometry x="0.0413" y="-2" relative="1" as="geometry">
            <mxPoint as="offset" />
          </mxGeometry>
        </mxCell>
        <mxCell id="KNMOKKNkH9T5p9I5OsQf-65" value="" style="endArrow=none;html=1;rounded=0;strokeColor=#08612E;strokeWidth=6;entryX=1;entryY=0.5;entryDx=0;entryDy=0;exitX=0;exitY=0.5;exitDx=0;exitDy=0;" edge="1" parent="1" source="KNMOKKNkH9T5p9I5OsQf-10" target="KNMOKKNkH9T5p9I5OsQf-21">
          <mxGeometry width="50" height="50" relative="1" as="geometry">
            <mxPoint x="422" y="1062" as="sourcePoint" />
            <mxPoint x="118" y="878" as="targetPoint" />
          </mxGeometry>
        </mxCell>
        <mxCell id="KNMOKKNkH9T5p9I5OsQf-66" value="&lt;font style=&quot;font-size: 16px;&quot;&gt;&lt;b&gt;5&lt;/b&gt;&lt;/font&gt;" style="edgeLabel;html=1;align=center;verticalAlign=middle;resizable=0;points=[];" vertex="1" connectable="0" parent="KNMOKKNkH9T5p9I5OsQf-65">
          <mxGeometry x="0.0413" y="-2" relative="1" as="geometry">
            <mxPoint as="offset" />
          </mxGeometry>
        </mxCell>
        <mxCell id="KNMOKKNkH9T5p9I5OsQf-67" value="" style="endArrow=none;html=1;rounded=0;strokeColor=#08612E;strokeWidth=6;entryX=0;entryY=1;entryDx=0;entryDy=0;exitX=1;exitY=0;exitDx=0;exitDy=0;" edge="1" parent="1" source="KNMOKKNkH9T5p9I5OsQf-21" target="KNMOKKNkH9T5p9I5OsQf-26">
          <mxGeometry width="50" height="50" relative="1" as="geometry">
            <mxPoint x="490" y="1090" as="sourcePoint" />
            <mxPoint x="622" y="998" as="targetPoint" />
          </mxGeometry>
        </mxCell>
        <mxCell id="KNMOKKNkH9T5p9I5OsQf-68" value="&lt;font style=&quot;font-size: 16px;&quot;&gt;&lt;b&gt;3&lt;/b&gt;&lt;/font&gt;" style="edgeLabel;html=1;align=center;verticalAlign=middle;resizable=0;points=[];" vertex="1" connectable="0" parent="KNMOKKNkH9T5p9I5OsQf-67">
          <mxGeometry x="0.0413" y="-2" relative="1" as="geometry">
            <mxPoint as="offset" />
          </mxGeometry>
        </mxCell>
        <mxCell id="KNMOKKNkH9T5p9I5OsQf-69" value="" style="endArrow=none;html=1;rounded=0;strokeColor=#08612E;strokeWidth=6;entryX=0;entryY=0;entryDx=0;entryDy=0;exitX=1;exitY=1;exitDx=0;exitDy=0;" edge="1" parent="1" source="KNMOKKNkH9T5p9I5OsQf-26" target="KNMOKKNkH9T5p9I5OsQf-10">
          <mxGeometry width="50" height="50" relative="1" as="geometry">
            <mxPoint x="278" y="622" as="sourcePoint" />
            <mxPoint x="382" y="558" as="targetPoint" />
          </mxGeometry>
        </mxCell>
        <mxCell id="KNMOKKNkH9T5p9I5OsQf-70" value="&lt;font style=&quot;font-size: 16px;&quot;&gt;&lt;b&gt;3&lt;/b&gt;&lt;/font&gt;" style="edgeLabel;html=1;align=center;verticalAlign=middle;resizable=0;points=[];" vertex="1" connectable="0" parent="KNMOKKNkH9T5p9I5OsQf-69">
          <mxGeometry x="0.0413" y="-2" relative="1" as="geometry">
            <mxPoint as="offset" />
          </mxGeometry>
        </mxCell>
        <mxCell id="KNMOKKNkH9T5p9I5OsQf-71" value="" style="endArrow=none;html=1;rounded=0;strokeColor=#08612E;strokeWidth=6;entryX=0.5;entryY=0;entryDx=0;entryDy=0;exitX=0.5;exitY=1;exitDx=0;exitDy=0;" edge="1" parent="1" source="KNMOKKNkH9T5p9I5OsQf-6" target="KNMOKKNkH9T5p9I5OsQf-10">
          <mxGeometry width="50" height="50" relative="1" as="geometry">
            <mxPoint x="438" y="558" as="sourcePoint" />
            <mxPoint x="552" y="632" as="targetPoint" />
          </mxGeometry>
        </mxCell>
        <mxCell id="KNMOKKNkH9T5p9I5OsQf-72" value="&lt;font style=&quot;font-size: 16px;&quot;&gt;&lt;b&gt;2&lt;/b&gt;&lt;/font&gt;" style="edgeLabel;html=1;align=center;verticalAlign=middle;resizable=0;points=[];" vertex="1" connectable="0" parent="KNMOKKNkH9T5p9I5OsQf-71">
          <mxGeometry x="0.0413" y="-2" relative="1" as="geometry">
            <mxPoint as="offset" />
          </mxGeometry>
        </mxCell>
        <mxCell id="KNMOKKNkH9T5p9I5OsQf-73" value="" style="endArrow=none;html=1;rounded=0;strokeColor=#08612E;strokeWidth=6;entryX=1;entryY=0.5;entryDx=0;entryDy=0;exitX=0;exitY=0.5;exitDx=0;exitDy=0;" edge="1" parent="1" source="KNMOKKNkH9T5p9I5OsQf-6" target="KNMOKKNkH9T5p9I5OsQf-26">
          <mxGeometry width="50" height="50" relative="1" as="geometry">
            <mxPoint x="570" y="530" as="sourcePoint" />
            <mxPoint x="580" y="620" as="targetPoint" />
          </mxGeometry>
        </mxCell>
        <mxCell id="KNMOKKNkH9T5p9I5OsQf-74" value="&lt;font style=&quot;font-size: 16px;&quot;&gt;&lt;b&gt;2&lt;/b&gt;&lt;/font&gt;" style="edgeLabel;html=1;align=center;verticalAlign=middle;resizable=0;points=[];" vertex="1" connectable="0" parent="KNMOKKNkH9T5p9I5OsQf-73">
          <mxGeometry x="0.0413" y="-2" relative="1" as="geometry">
            <mxPoint as="offset" />
          </mxGeometry>
        </mxCell>
        <mxCell id="KNMOKKNkH9T5p9I5OsQf-75" value="" style="endArrow=none;html=1;rounded=0;strokeColor=#08612E;strokeWidth=6;entryX=0;entryY=0.5;entryDx=0;entryDy=0;exitX=1;exitY=0.5;exitDx=0;exitDy=0;" edge="1" parent="1" source="KNMOKKNkH9T5p9I5OsQf-6" target="KNMOKKNkH9T5p9I5OsQf-8">
          <mxGeometry width="50" height="50" relative="1" as="geometry">
            <mxPoint x="438" y="558" as="sourcePoint" />
            <mxPoint x="552" y="632" as="targetPoint" />
          </mxGeometry>
        </mxCell>
        <mxCell id="KNMOKKNkH9T5p9I5OsQf-76" value="&lt;font style=&quot;font-size: 16px;&quot;&gt;&lt;b&gt;3&lt;/b&gt;&lt;/font&gt;" style="edgeLabel;html=1;align=center;verticalAlign=middle;resizable=0;points=[];" vertex="1" connectable="0" parent="KNMOKKNkH9T5p9I5OsQf-75">
          <mxGeometry x="0.0413" y="-2" relative="1" as="geometry">
            <mxPoint as="offset" />
          </mxGeometry>
        </mxCell>
        <mxCell id="KNMOKKNkH9T5p9I5OsQf-77" value="" style="endArrow=none;html=1;rounded=0;strokeColor=#08612E;strokeWidth=6;entryX=0;entryY=1;entryDx=0;entryDy=0;exitX=1;exitY=0;exitDx=0;exitDy=0;" edge="1" parent="1" source="KNMOKKNkH9T5p9I5OsQf-10" target="KNMOKKNkH9T5p9I5OsQf-8">
          <mxGeometry width="50" height="50" relative="1" as="geometry">
            <mxPoint x="838" y="878" as="sourcePoint" />
            <mxPoint x="982" y="1022" as="targetPoint" />
          </mxGeometry>
        </mxCell>
        <mxCell id="KNMOKKNkH9T5p9I5OsQf-78" value="&lt;font style=&quot;font-size: 16px;&quot;&gt;&lt;b&gt;4&lt;/b&gt;&lt;/font&gt;" style="edgeLabel;html=1;align=center;verticalAlign=middle;resizable=0;points=[];" vertex="1" connectable="0" parent="KNMOKKNkH9T5p9I5OsQf-77">
          <mxGeometry x="0.0413" y="-2" relative="1" as="geometry">
            <mxPoint as="offset" />
          </mxGeometry>
        </mxCell>
        <mxCell id="KNMOKKNkH9T5p9I5OsQf-79" value="" style="endArrow=none;html=1;rounded=0;strokeColor=#08612E;strokeWidth=6;entryX=0;entryY=0.5;entryDx=0;entryDy=0;exitX=1;exitY=0.5;exitDx=0;exitDy=0;" edge="1" parent="1" source="KNMOKKNkH9T5p9I5OsQf-8" target="KNMOKKNkH9T5p9I5OsQf-19">
          <mxGeometry width="50" height="50" relative="1" as="geometry">
            <mxPoint x="610" y="490" as="sourcePoint" />
            <mxPoint x="730" y="490" as="targetPoint" />
          </mxGeometry>
        </mxCell>
        <mxCell id="KNMOKKNkH9T5p9I5OsQf-80" value="&lt;font style=&quot;font-size: 16px;&quot;&gt;&lt;b&gt;3&lt;/b&gt;&lt;/font&gt;" style="edgeLabel;html=1;align=center;verticalAlign=middle;resizable=0;points=[];" vertex="1" connectable="0" parent="KNMOKKNkH9T5p9I5OsQf-79">
          <mxGeometry x="0.0413" y="-2" relative="1" as="geometry">
            <mxPoint as="offset" />
          </mxGeometry>
        </mxCell>
        <mxCell id="KNMOKKNkH9T5p9I5OsQf-81" value="" style="endArrow=none;html=1;rounded=0;strokeColor=#08612E;strokeWidth=6;entryX=1;entryY=1;entryDx=0;entryDy=0;exitX=0;exitY=0;exitDx=0;exitDy=0;" edge="1" parent="1" source="KNMOKKNkH9T5p9I5OsQf-1" target="KNMOKKNkH9T5p9I5OsQf-8">
          <mxGeometry width="50" height="50" relative="1" as="geometry">
            <mxPoint x="608" y="632" as="sourcePoint" />
            <mxPoint x="742" y="518" as="targetPoint" />
          </mxGeometry>
        </mxCell>
        <mxCell id="KNMOKKNkH9T5p9I5OsQf-82" value="&lt;font style=&quot;font-size: 16px;&quot;&gt;&lt;b&gt;4&lt;/b&gt;&lt;/font&gt;" style="edgeLabel;html=1;align=center;verticalAlign=middle;resizable=0;points=[];" vertex="1" connectable="0" parent="KNMOKKNkH9T5p9I5OsQf-81">
          <mxGeometry x="0.0413" y="-2" relative="1" as="geometry">
            <mxPoint as="offset" />
          </mxGeometry>
        </mxCell>
        <mxCell id="KNMOKKNkH9T5p9I5OsQf-83" value="" style="endArrow=none;html=1;rounded=0;strokeColor=#08612E;strokeWidth=6;entryX=0;entryY=1;entryDx=0;entryDy=0;exitX=1;exitY=0;exitDx=0;exitDy=0;" edge="1" parent="1" source="KNMOKKNkH9T5p9I5OsQf-8" target="KNMOKKNkH9T5p9I5OsQf-7">
          <mxGeometry width="50" height="50" relative="1" as="geometry">
            <mxPoint x="810" y="490" as="sourcePoint" />
            <mxPoint x="930" y="520" as="targetPoint" />
          </mxGeometry>
        </mxCell>
        <mxCell id="KNMOKKNkH9T5p9I5OsQf-84" value="&lt;font style=&quot;font-size: 16px;&quot;&gt;&lt;b&gt;1&lt;/b&gt;&lt;/font&gt;" style="edgeLabel;html=1;align=center;verticalAlign=middle;resizable=0;points=[];" vertex="1" connectable="0" parent="KNMOKKNkH9T5p9I5OsQf-83">
          <mxGeometry x="0.0413" y="-2" relative="1" as="geometry">
            <mxPoint as="offset" />
          </mxGeometry>
        </mxCell>
        <mxCell id="KNMOKKNkH9T5p9I5OsQf-85" value="" style="endArrow=none;html=1;rounded=0;strokeColor=#08612E;strokeWidth=6;entryX=0;entryY=0.5;entryDx=0;entryDy=0;exitX=1;exitY=1;exitDx=0;exitDy=0;" edge="1" parent="1" source="KNMOKKNkH9T5p9I5OsQf-11" target="KNMOKKNkH9T5p9I5OsQf-7">
          <mxGeometry width="50" height="50" relative="1" as="geometry">
            <mxPoint x="798" y="462" as="sourcePoint" />
            <mxPoint x="822" y="398" as="targetPoint" />
          </mxGeometry>
        </mxCell>
        <mxCell id="KNMOKKNkH9T5p9I5OsQf-86" value="&lt;font style=&quot;font-size: 16px;&quot;&gt;&lt;b&gt;1&lt;/b&gt;&lt;/font&gt;" style="edgeLabel;html=1;align=center;verticalAlign=middle;resizable=0;points=[];" vertex="1" connectable="0" parent="KNMOKKNkH9T5p9I5OsQf-85">
          <mxGeometry x="0.0413" y="-2" relative="1" as="geometry">
            <mxPoint as="offset" />
          </mxGeometry>
        </mxCell>
        <mxCell id="KNMOKKNkH9T5p9I5OsQf-87" value="" style="endArrow=none;html=1;rounded=0;strokeColor=#08612E;strokeWidth=6;entryX=0;entryY=0;entryDx=0;entryDy=0;exitX=0.5;exitY=1;exitDx=0;exitDy=0;" edge="1" parent="1" source="KNMOKKNkH9T5p9I5OsQf-11" target="KNMOKKNkH9T5p9I5OsQf-8">
          <mxGeometry width="50" height="50" relative="1" as="geometry">
            <mxPoint x="730" y="400" as="sourcePoint" />
            <mxPoint x="580" y="620" as="targetPoint" />
          </mxGeometry>
        </mxCell>
        <mxCell id="KNMOKKNkH9T5p9I5OsQf-88" value="&lt;font style=&quot;font-size: 16px;&quot;&gt;&lt;b&gt;2&lt;/b&gt;&lt;/font&gt;" style="edgeLabel;html=1;align=center;verticalAlign=middle;resizable=0;points=[];" vertex="1" connectable="0" parent="KNMOKKNkH9T5p9I5OsQf-87">
          <mxGeometry x="0.0413" y="-2" relative="1" as="geometry">
            <mxPoint as="offset" />
          </mxGeometry>
        </mxCell>
        <mxCell id="KNMOKKNkH9T5p9I5OsQf-91" value="" style="endArrow=none;html=1;rounded=0;strokeColor=#08612E;strokeWidth=6;entryX=0;entryY=0.5;entryDx=0;entryDy=0;exitX=1;exitY=1;exitDx=0;exitDy=0;" edge="1" parent="1" source="KNMOKKNkH9T5p9I5OsQf-24" target="KNMOKKNkH9T5p9I5OsQf-11">
          <mxGeometry width="50" height="50" relative="1" as="geometry">
            <mxPoint x="610" y="490" as="sourcePoint" />
            <mxPoint x="730" y="490" as="targetPoint" />
          </mxGeometry>
        </mxCell>
        <mxCell id="KNMOKKNkH9T5p9I5OsQf-92" value="&lt;font style=&quot;font-size: 16px;&quot;&gt;&lt;b&gt;2&lt;/b&gt;&lt;/font&gt;" style="edgeLabel;html=1;align=center;verticalAlign=middle;resizable=0;points=[];" vertex="1" connectable="0" parent="KNMOKKNkH9T5p9I5OsQf-91">
          <mxGeometry x="0.0413" y="-2" relative="1" as="geometry">
            <mxPoint as="offset" />
          </mxGeometry>
        </mxCell>
        <mxCell id="KNMOKKNkH9T5p9I5OsQf-93" value="" style="endArrow=none;html=1;rounded=0;strokeColor=#08612E;strokeWidth=6;entryX=0.5;entryY=1;entryDx=0;entryDy=0;exitX=0.5;exitY=0;exitDx=0;exitDy=0;" edge="1" parent="1" source="KNMOKKNkH9T5p9I5OsQf-6" target="KNMOKKNkH9T5p9I5OsQf-24">
          <mxGeometry width="50" height="50" relative="1" as="geometry">
            <mxPoint x="608" y="632" as="sourcePoint" />
            <mxPoint x="742" y="518" as="targetPoint" />
          </mxGeometry>
        </mxCell>
        <mxCell id="KNMOKKNkH9T5p9I5OsQf-94" value="&lt;font style=&quot;font-size: 16px;&quot;&gt;&lt;b&gt;4&lt;/b&gt;&lt;/font&gt;" style="edgeLabel;html=1;align=center;verticalAlign=middle;resizable=0;points=[];" vertex="1" connectable="0" parent="KNMOKKNkH9T5p9I5OsQf-93">
          <mxGeometry x="0.0413" y="-2" relative="1" as="geometry">
            <mxPoint as="offset" />
          </mxGeometry>
        </mxCell>
        <mxCell id="KNMOKKNkH9T5p9I5OsQf-95" value="" style="endArrow=none;html=1;rounded=0;strokeColor=#08612E;strokeWidth=6;entryX=0;entryY=1;entryDx=0;entryDy=0;exitX=1;exitY=0;exitDx=0;exitDy=0;" edge="1" parent="1" source="KNMOKKNkH9T5p9I5OsQf-6" target="KNMOKKNkH9T5p9I5OsQf-11">
          <mxGeometry width="50" height="50" relative="1" as="geometry">
            <mxPoint x="570" y="450" as="sourcePoint" />
            <mxPoint x="570" y="290" as="targetPoint" />
          </mxGeometry>
        </mxCell>
        <mxCell id="KNMOKKNkH9T5p9I5OsQf-96" value="&lt;font style=&quot;font-size: 16px;&quot;&gt;&lt;b&gt;4&lt;/b&gt;&lt;/font&gt;" style="edgeLabel;html=1;align=center;verticalAlign=middle;resizable=0;points=[];" vertex="1" connectable="0" parent="KNMOKKNkH9T5p9I5OsQf-95">
          <mxGeometry x="0.0413" y="-2" relative="1" as="geometry">
            <mxPoint as="offset" />
          </mxGeometry>
        </mxCell>
        <mxCell id="KNMOKKNkH9T5p9I5OsQf-97" value="" style="endArrow=none;html=1;rounded=0;strokeColor=#08612E;strokeWidth=6;exitX=0;exitY=0.5;exitDx=0;exitDy=0;entryX=1;entryY=0.5;entryDx=0;entryDy=0;" edge="1" parent="1" source="KNMOKKNkH9T5p9I5OsQf-24" target="KNMOKKNkH9T5p9I5OsQf-22">
          <mxGeometry width="50" height="50" relative="1" as="geometry">
            <mxPoint x="500" y="260" as="sourcePoint" />
            <mxPoint x="340" y="390" as="targetPoint" />
          </mxGeometry>
        </mxCell>
        <mxCell id="KNMOKKNkH9T5p9I5OsQf-98" value="&lt;font style=&quot;font-size: 16px;&quot;&gt;&lt;b&gt;5&lt;/b&gt;&lt;/font&gt;" style="edgeLabel;html=1;align=center;verticalAlign=middle;resizable=0;points=[];" vertex="1" connectable="0" parent="KNMOKKNkH9T5p9I5OsQf-97">
          <mxGeometry x="0.0413" y="-2" relative="1" as="geometry">
            <mxPoint as="offset" />
          </mxGeometry>
        </mxCell>
        <mxCell id="KNMOKKNkH9T5p9I5OsQf-103" value="" style="endArrow=none;html=1;rounded=0;strokeColor=#08612E;strokeWidth=6;entryX=0;entryY=0.5;entryDx=0;entryDy=0;exitX=1;exitY=0.5;exitDx=0;exitDy=0;" edge="1" parent="1" source="KNMOKKNkH9T5p9I5OsQf-7" target="KNMOKKNkH9T5p9I5OsQf-18">
          <mxGeometry width="50" height="50" relative="1" as="geometry">
            <mxPoint x="598" y="462" as="sourcePoint" />
            <mxPoint x="702" y="358" as="targetPoint" />
          </mxGeometry>
        </mxCell>
        <mxCell id="KNMOKKNkH9T5p9I5OsQf-104" value="&lt;font style=&quot;font-size: 16px;&quot;&gt;&lt;b&gt;3&lt;/b&gt;&lt;/font&gt;" style="edgeLabel;html=1;align=center;verticalAlign=middle;resizable=0;points=[];" vertex="1" connectable="0" parent="KNMOKKNkH9T5p9I5OsQf-103">
          <mxGeometry x="0.0413" y="-2" relative="1" as="geometry">
            <mxPoint as="offset" />
          </mxGeometry>
        </mxCell>
        <mxCell id="KNMOKKNkH9T5p9I5OsQf-105" value="" style="endArrow=none;html=1;rounded=0;strokeColor=#08612E;strokeWidth=6;entryX=0;entryY=0;entryDx=0;entryDy=0;exitX=1;exitY=1;exitDx=0;exitDy=0;" edge="1" parent="1" source="KNMOKKNkH9T5p9I5OsQf-7" target="KNMOKKNkH9T5p9I5OsQf-19">
          <mxGeometry width="50" height="50" relative="1" as="geometry">
            <mxPoint x="890" y="370" as="sourcePoint" />
            <mxPoint x="1010" y="410" as="targetPoint" />
          </mxGeometry>
        </mxCell>
        <mxCell id="KNMOKKNkH9T5p9I5OsQf-106" value="&lt;font style=&quot;font-size: 16px;&quot;&gt;&lt;b&gt;2&lt;/b&gt;&lt;/font&gt;" style="edgeLabel;html=1;align=center;verticalAlign=middle;resizable=0;points=[];" vertex="1" connectable="0" parent="KNMOKKNkH9T5p9I5OsQf-105">
          <mxGeometry x="0.0413" y="-2" relative="1" as="geometry">
            <mxPoint as="offset" />
          </mxGeometry>
        </mxCell>
        <mxCell id="KNMOKKNkH9T5p9I5OsQf-107" value="" style="endArrow=none;html=1;rounded=0;strokeColor=#08612E;strokeWidth=6;entryX=0;entryY=0;entryDx=0;entryDy=0;exitX=1;exitY=1;exitDx=0;exitDy=0;" edge="1" parent="1" source="KNMOKKNkH9T5p9I5OsQf-10" target="KNMOKKNkH9T5p9I5OsQf-9">
          <mxGeometry width="50" height="50" relative="1" as="geometry">
            <mxPoint x="608" y="632" as="sourcePoint" />
            <mxPoint x="742" y="518" as="targetPoint" />
          </mxGeometry>
        </mxCell>
        <mxCell id="KNMOKKNkH9T5p9I5OsQf-108" value="&lt;font style=&quot;font-size: 16px;&quot;&gt;&lt;b&gt;4&lt;/b&gt;&lt;/font&gt;" style="edgeLabel;html=1;align=center;verticalAlign=middle;resizable=0;points=[];" vertex="1" connectable="0" parent="KNMOKKNkH9T5p9I5OsQf-107">
          <mxGeometry x="0.0413" y="-2" relative="1" as="geometry">
            <mxPoint as="offset" />
          </mxGeometry>
        </mxCell>
        <mxCell id="KNMOKKNkH9T5p9I5OsQf-109" value="" style="endArrow=none;html=1;rounded=0;strokeColor=#08612E;strokeWidth=6;entryX=1;entryY=0.5;entryDx=0;entryDy=0;exitX=0;exitY=0.5;exitDx=0;exitDy=0;" edge="1" parent="1" source="KNMOKKNkH9T5p9I5OsQf-1" target="KNMOKKNkH9T5p9I5OsQf-10">
          <mxGeometry width="50" height="50" relative="1" as="geometry">
            <mxPoint x="540" y="660" as="sourcePoint" />
            <mxPoint x="290" y="650" as="targetPoint" />
          </mxGeometry>
        </mxCell>
        <mxCell id="KNMOKKNkH9T5p9I5OsQf-110" value="&lt;font style=&quot;font-size: 16px;&quot;&gt;&lt;b&gt;5&lt;/b&gt;&lt;/font&gt;" style="edgeLabel;html=1;align=center;verticalAlign=middle;resizable=0;points=[];" vertex="1" connectable="0" parent="KNMOKKNkH9T5p9I5OsQf-109">
          <mxGeometry x="0.0413" y="-2" relative="1" as="geometry">
            <mxPoint as="offset" />
          </mxGeometry>
        </mxCell>
        <mxCell id="KNMOKKNkH9T5p9I5OsQf-111" value="" style="endArrow=none;html=1;rounded=0;strokeColor=#08612E;strokeWidth=6;entryX=0.5;entryY=1;entryDx=0;entryDy=0;exitX=0.5;exitY=0;exitDx=0;exitDy=0;" edge="1" parent="1" source="KNMOKKNkH9T5p9I5OsQf-20" target="KNMOKKNkH9T5p9I5OsQf-23">
          <mxGeometry width="50" height="50" relative="1" as="geometry">
            <mxPoint x="1223" y="742" as="sourcePoint" />
            <mxPoint x="970" y="690" as="targetPoint" />
          </mxGeometry>
        </mxCell>
        <mxCell id="KNMOKKNkH9T5p9I5OsQf-112" value="&lt;font style=&quot;font-size: 16px;&quot;&gt;&lt;b&gt;5&lt;/b&gt;&lt;/font&gt;" style="edgeLabel;html=1;align=center;verticalAlign=middle;resizable=0;points=[];" vertex="1" connectable="0" parent="KNMOKKNkH9T5p9I5OsQf-111">
          <mxGeometry x="0.0413" y="-2" relative="1" as="geometry">
            <mxPoint as="offset" />
          </mxGeometry>
        </mxCell>
        <mxCell id="KNMOKKNkH9T5p9I5OsQf-113" value="" style="endArrow=none;html=1;rounded=0;strokeColor=#08612E;strokeWidth=6;entryX=0;entryY=0.5;entryDx=0;entryDy=0;exitX=1;exitY=0.5;exitDx=0;exitDy=0;" edge="1" parent="1" source="KNMOKKNkH9T5p9I5OsQf-18" target="KNMOKKNkH9T5p9I5OsQf-23">
          <mxGeometry width="50" height="50" relative="1" as="geometry">
            <mxPoint x="890" y="370" as="sourcePoint" />
            <mxPoint x="1010" y="410" as="targetPoint" />
          </mxGeometry>
        </mxCell>
        <mxCell id="KNMOKKNkH9T5p9I5OsQf-114" value="&lt;font style=&quot;font-size: 16px;&quot;&gt;&lt;b&gt;3&lt;/b&gt;&lt;/font&gt;" style="edgeLabel;html=1;align=center;verticalAlign=middle;resizable=0;points=[];" vertex="1" connectable="0" parent="KNMOKKNkH9T5p9I5OsQf-113">
          <mxGeometry x="0.0413" y="-2" relative="1" as="geometry">
            <mxPoint as="offset" />
          </mxGeometry>
        </mxCell>
        <mxCell id="KNMOKKNkH9T5p9I5OsQf-115" value="" style="endArrow=none;html=1;rounded=0;strokeColor=#08612E;strokeWidth=6;entryX=0;entryY=1;entryDx=0;entryDy=0;exitX=1;exitY=0;exitDx=0;exitDy=0;" edge="1" parent="1" source="KNMOKKNkH9T5p9I5OsQf-5" target="KNMOKKNkH9T5p9I5OsQf-20">
          <mxGeometry width="50" height="50" relative="1" as="geometry">
            <mxPoint x="1070" y="1010" as="sourcePoint" />
            <mxPoint x="970" y="690" as="targetPoint" />
          </mxGeometry>
        </mxCell>
        <mxCell id="KNMOKKNkH9T5p9I5OsQf-116" value="&lt;font style=&quot;font-size: 16px;&quot;&gt;&lt;b&gt;5&lt;/b&gt;&lt;/font&gt;" style="edgeLabel;html=1;align=center;verticalAlign=middle;resizable=0;points=[];" vertex="1" connectable="0" parent="KNMOKKNkH9T5p9I5OsQf-115">
          <mxGeometry x="0.0413" y="-2" relative="1" as="geometry">
            <mxPoint as="offset" />
          </mxGeometry>
        </mxCell>
        <mxCell id="KNMOKKNkH9T5p9I5OsQf-117" value="" style="endArrow=none;html=1;rounded=0;strokeColor=#08612E;strokeWidth=6;entryX=0.5;entryY=1;entryDx=0;entryDy=0;exitX=0.5;exitY=0;exitDx=0;exitDy=0;" edge="1" parent="1" source="KNMOKKNkH9T5p9I5OsQf-21" target="KNMOKKNkH9T5p9I5OsQf-22">
          <mxGeometry width="50" height="50" relative="1" as="geometry">
            <mxPoint x="278" y="622" as="sourcePoint" />
            <mxPoint x="382" y="558" as="targetPoint" />
          </mxGeometry>
        </mxCell>
        <mxCell id="KNMOKKNkH9T5p9I5OsQf-118" value="&lt;font style=&quot;font-size: 16px;&quot;&gt;&lt;b&gt;7&lt;/b&gt;&lt;/font&gt;" style="edgeLabel;html=1;align=center;verticalAlign=middle;resizable=0;points=[];" vertex="1" connectable="0" parent="KNMOKKNkH9T5p9I5OsQf-117">
          <mxGeometry x="0.0413" y="-2" relative="1" as="geometry">
            <mxPoint as="offset" />
          </mxGeometry>
        </mxCell>
        <mxCell id="KNMOKKNkH9T5p9I5OsQf-119" value="" style="endArrow=none;html=1;rounded=0;strokeColor=#08612E;strokeWidth=6;entryX=0.5;entryY=0;entryDx=0;entryDy=0;exitX=0.5;exitY=1;exitDx=0;exitDy=0;" edge="1" parent="1" source="KNMOKKNkH9T5p9I5OsQf-12" target="KNMOKKNkH9T5p9I5OsQf-23">
          <mxGeometry width="50" height="50" relative="1" as="geometry">
            <mxPoint x="1080" y="280" as="sourcePoint" />
            <mxPoint x="1201" y="240" as="targetPoint" />
          </mxGeometry>
        </mxCell>
        <mxCell id="KNMOKKNkH9T5p9I5OsQf-120" value="&lt;font style=&quot;font-size: 16px;&quot;&gt;&lt;b&gt;4&lt;/b&gt;&lt;/font&gt;" style="edgeLabel;html=1;align=center;verticalAlign=middle;resizable=0;points=[];" vertex="1" connectable="0" parent="KNMOKKNkH9T5p9I5OsQf-119">
          <mxGeometry x="0.0413" y="-2" relative="1" as="geometry">
            <mxPoint as="offset" />
          </mxGeometry>
        </mxCell>
        <mxCell id="KNMOKKNkH9T5p9I5OsQf-121" value="" style="endArrow=none;html=1;rounded=0;strokeColor=#08612E;strokeWidth=6;entryX=1;entryY=1;entryDx=0;entryDy=0;exitX=0;exitY=0;exitDx=0;exitDy=0;" edge="1" parent="1" source="KNMOKKNkH9T5p9I5OsQf-4" target="KNMOKKNkH9T5p9I5OsQf-21">
          <mxGeometry width="50" height="50" relative="1" as="geometry">
            <mxPoint x="422" y="1062" as="sourcePoint" />
            <mxPoint x="118" y="878" as="targetPoint" />
          </mxGeometry>
        </mxCell>
        <mxCell id="KNMOKKNkH9T5p9I5OsQf-122" value="&lt;font style=&quot;font-size: 16px;&quot;&gt;&lt;b&gt;7&lt;/b&gt;&lt;/font&gt;" style="edgeLabel;html=1;align=center;verticalAlign=middle;resizable=0;points=[];" vertex="1" connectable="0" parent="KNMOKKNkH9T5p9I5OsQf-121">
          <mxGeometry x="0.0413" y="-2" relative="1" as="geometry">
            <mxPoint as="offset" />
          </mxGeometry>
        </mxCell>
        <mxCell id="KNMOKKNkH9T5p9I5OsQf-123" value="" style="endArrow=none;html=1;rounded=0;strokeColor=#08612E;strokeWidth=6;entryX=1;entryY=0;entryDx=0;entryDy=0;exitX=0;exitY=0.5;exitDx=0;exitDy=0;" edge="1" parent="1" source="KNMOKKNkH9T5p9I5OsQf-12" target="KNMOKKNkH9T5p9I5OsQf-7">
          <mxGeometry width="50" height="50" relative="1" as="geometry">
            <mxPoint x="1210" y="170" as="sourcePoint" />
            <mxPoint x="1251" y="330" as="targetPoint" />
          </mxGeometry>
        </mxCell>
        <mxCell id="KNMOKKNkH9T5p9I5OsQf-124" value="&lt;font style=&quot;font-size: 16px;&quot;&gt;&lt;b&gt;6&lt;/b&gt;&lt;/font&gt;" style="edgeLabel;html=1;align=center;verticalAlign=middle;resizable=0;points=[];" vertex="1" connectable="0" parent="KNMOKKNkH9T5p9I5OsQf-123">
          <mxGeometry x="0.0413" y="-2" relative="1" as="geometry">
            <mxPoint as="offset" />
          </mxGeometry>
        </mxCell>
        <mxCell id="KNMOKKNkH9T5p9I5OsQf-125" value="" style="endArrow=none;html=1;rounded=0;strokeColor=#08612E;strokeWidth=6;entryX=1;entryY=1;entryDx=0;entryDy=0;exitX=0;exitY=0;exitDx=0;exitDy=0;" edge="1" parent="1" source="KNMOKKNkH9T5p9I5OsQf-26" target="KNMOKKNkH9T5p9I5OsQf-22">
          <mxGeometry width="50" height="50" relative="1" as="geometry">
            <mxPoint x="250" y="610" as="sourcePoint" />
            <mxPoint x="250" y="250" as="targetPoint" />
          </mxGeometry>
        </mxCell>
        <mxCell id="KNMOKKNkH9T5p9I5OsQf-126" value="&lt;font style=&quot;font-size: 16px;&quot;&gt;&lt;b&gt;6&lt;/b&gt;&lt;/font&gt;" style="edgeLabel;html=1;align=center;verticalAlign=middle;resizable=0;points=[];" vertex="1" connectable="0" parent="KNMOKKNkH9T5p9I5OsQf-125">
          <mxGeometry x="0.0413" y="-2" relative="1" as="geometry">
            <mxPoint as="offset" />
          </mxGeometry>
        </mxCell>
        <mxCell id="KNMOKKNkH9T5p9I5OsQf-127" value="&lt;span style=&quot;font-size: 20px;&quot;&gt;&lt;b&gt;0&lt;/b&gt;&lt;/span&gt;" style="shape=mxgraph.signs.transportation.car_1;html=1;pointerEvents=1;fillColor=#9C6616;strokeColor=none;verticalLabelPosition=middle;verticalAlign=top;align=center;direction=east;horizontal=1;labelPosition=center;" vertex="1" parent="1">
          <mxGeometry x="420" y="1020" width="40" height="40" as="geometry" />
        </mxCell>
        <mxCell id="KNMOKKNkH9T5p9I5OsQf-135" value="&lt;span style=&quot;font-size: 20px;&quot;&gt;&lt;b&gt;1&lt;/b&gt;&lt;/span&gt;" style="shape=mxgraph.signs.transportation.car_1;html=1;pointerEvents=1;fillColor=#9C6616;strokeColor=none;verticalLabelPosition=middle;verticalAlign=top;align=center;direction=east;horizontal=1;labelPosition=center;" vertex="1" parent="1">
          <mxGeometry x="620" y="980" width="40" height="40" as="geometry" />
        </mxCell>
        <mxCell id="KNMOKKNkH9T5p9I5OsQf-136" value="&lt;span style=&quot;font-size: 20px;&quot;&gt;&lt;b&gt;2&lt;/b&gt;&lt;/span&gt;" style="shape=mxgraph.signs.transportation.car_1;html=1;pointerEvents=1;fillColor=#9C6616;strokeColor=none;verticalLabelPosition=middle;verticalAlign=top;align=center;direction=east;horizontal=1;labelPosition=center;" vertex="1" parent="1">
          <mxGeometry x="827" y="820" width="40" height="40" as="geometry" />
        </mxCell>
        <mxCell id="KNMOKKNkH9T5p9I5OsQf-137" value="&lt;span style=&quot;font-size: 20px;&quot;&gt;&lt;b&gt;3&lt;/b&gt;&lt;/span&gt;" style="shape=mxgraph.signs.transportation.car_1;html=1;pointerEvents=1;fillColor=#9C6616;strokeColor=none;verticalLabelPosition=middle;verticalAlign=top;align=center;direction=east;horizontal=1;labelPosition=center;" vertex="1" parent="1">
          <mxGeometry x="550" y="670" width="40" height="40" as="geometry" />
        </mxCell>
        <mxCell id="KNMOKKNkH9T5p9I5OsQf-138" value="&lt;span style=&quot;font-size: 20px;&quot;&gt;&lt;b&gt;4&lt;/b&gt;&lt;/span&gt;" style="shape=mxgraph.signs.transportation.car_1;html=1;pointerEvents=1;fillColor=#9C6616;strokeColor=none;verticalLabelPosition=middle;verticalAlign=top;align=center;direction=east;horizontal=1;labelPosition=center;" vertex="1" parent="1">
          <mxGeometry x="500" y="430" width="40" height="40" as="geometry" />
        </mxCell>
        <mxCell id="KNMOKKNkH9T5p9I5OsQf-139" value="&lt;span style=&quot;font-size: 20px;&quot;&gt;&lt;b&gt;6&lt;/b&gt;&lt;/span&gt;" style="shape=mxgraph.signs.transportation.car_1;html=1;pointerEvents=1;fillColor=#9C6616;strokeColor=none;verticalLabelPosition=middle;verticalAlign=top;align=center;direction=east;horizontal=1;labelPosition=center;" vertex="1" parent="1">
          <mxGeometry x="740" y="420" width="40" height="40" as="geometry" />
        </mxCell>
        <mxCell id="KNMOKKNkH9T5p9I5OsQf-140" value="&lt;span style=&quot;font-size: 20px;&quot;&gt;&lt;b&gt;5&lt;/b&gt;&lt;/span&gt;" style="shape=mxgraph.signs.transportation.car_1;html=1;pointerEvents=1;fillColor=#9C6616;strokeColor=none;verticalLabelPosition=middle;verticalAlign=top;align=center;direction=east;horizontal=1;labelPosition=center;" vertex="1" parent="1">
          <mxGeometry x="740" y="490" width="40" height="40" as="geometry" />
        </mxCell>
        <mxCell id="KNMOKKNkH9T5p9I5OsQf-144" value="&lt;span style=&quot;font-size: 20px;&quot;&gt;&lt;b&gt;7&lt;/b&gt;&lt;/span&gt;" style="shape=mxgraph.signs.transportation.car_1;html=1;pointerEvents=1;fillColor=#9C6616;strokeColor=none;verticalLabelPosition=middle;verticalAlign=top;align=center;direction=east;horizontal=1;labelPosition=center;" vertex="1" parent="1">
          <mxGeometry x="990" y="340" width="40" height="40" as="geometry" />
        </mxCell>
      </root>
    </mxGraphModel>
  </diagram>
  <diagram id="1atdRqnqA_RO8kvtePy6" name="‫עמוד-2‬">
    <mxGraphModel dx="1687" dy="984" grid="1" gridSize="10" guides="1" tooltips="1" connect="1" arrows="1" fold="1" page="1" pageScale="1" pageWidth="827" pageHeight="1169" math="0" shadow="0">
      <root>
        <mxCell id="0" />
        <mxCell id="1" parent="0" />
        <mxCell id="dJm7QAppJB-XsxKHxpHP-1" value="&lt;font style=&quot;&quot; size=&quot;1&quot;&gt;&lt;span style=&quot;font-size: 20px;&quot;&gt;9&lt;/span&gt;&lt;/font&gt;" style="ellipse;whiteSpace=wrap;html=1;aspect=fixed;fillColor=#086E67;strokeColor=#3039BF;gradientColor=#00E02D;fontStyle=1" vertex="1" parent="1">
          <mxGeometry x="880" y="640" width="80" height="80" as="geometry" />
        </mxCell>
        <mxCell id="dJm7QAppJB-XsxKHxpHP-2" value="&lt;font style=&quot;&quot; size=&quot;1&quot;&gt;&lt;span style=&quot;font-size: 20px;&quot;&gt;2&lt;/span&gt;&lt;/font&gt;" style="ellipse;whiteSpace=wrap;html=1;aspect=fixed;fillColor=#9C6616;strokeColor=#3039BF;gradientColor=#E02222;fontStyle=1;strokeWidth=5;" vertex="1" parent="1">
          <mxGeometry x="760" y="1040" width="80" height="80" as="geometry" />
        </mxCell>
        <mxCell id="dJm7QAppJB-XsxKHxpHP-3" value="&lt;font style=&quot;&quot; size=&quot;1&quot;&gt;&lt;span style=&quot;font-size: 20px;&quot;&gt;1&lt;/span&gt;&lt;/font&gt;" style="ellipse;whiteSpace=wrap;html=1;aspect=fixed;fillColor=#086E67;strokeColor=#3039BF;gradientColor=#48E0D6;fontStyle=1" vertex="1" parent="1">
          <mxGeometry x="600" y="920" width="80" height="80" as="geometry" />
        </mxCell>
        <mxCell id="dJm7QAppJB-XsxKHxpHP-4" value="&lt;font style=&quot;&quot; size=&quot;1&quot;&gt;&lt;span style=&quot;font-size: 20px;&quot;&gt;3&lt;/span&gt;&lt;/font&gt;" style="ellipse;whiteSpace=wrap;html=1;aspect=fixed;fillColor=#086E67;strokeColor=#3039BF;gradientColor=#E02222;fontStyle=1" vertex="1" parent="1">
          <mxGeometry x="960" y="1000" width="80" height="80" as="geometry" />
        </mxCell>
        <mxCell id="dJm7QAppJB-XsxKHxpHP-5" value="&lt;font style=&quot;&quot; size=&quot;1&quot;&gt;&lt;span style=&quot;font-size: 20px;&quot;&gt;11&lt;/span&gt;&lt;/font&gt;" style="ellipse;whiteSpace=wrap;html=1;aspect=fixed;fillColor=#086E67;strokeColor=#3039BF;gradientColor=#E0E03A;fontStyle=1" vertex="1" parent="1">
          <mxGeometry x="520" y="440" width="80" height="80" as="geometry" />
        </mxCell>
        <mxCell id="dJm7QAppJB-XsxKHxpHP-6" value="&lt;font style=&quot;&quot; size=&quot;1&quot;&gt;&lt;span style=&quot;font-size: 20px;&quot;&gt;16&lt;/span&gt;&lt;/font&gt;" style="ellipse;whiteSpace=wrap;html=1;aspect=fixed;fillColor=#086E67;strokeColor=#3039BF;gradientColor=#E0E03A;fontStyle=1" vertex="1" parent="1">
          <mxGeometry x="800" y="320" width="80" height="80" as="geometry" />
        </mxCell>
        <mxCell id="dJm7QAppJB-XsxKHxpHP-7" value="&lt;font style=&quot;&quot; size=&quot;1&quot;&gt;&lt;span style=&quot;font-size: 20px;&quot;&gt;12&lt;/span&gt;&lt;/font&gt;" style="ellipse;whiteSpace=wrap;html=1;aspect=fixed;fillColor=#086E67;strokeColor=#3039BF;gradientColor=#E0E03A;fontStyle=1" vertex="1" parent="1">
          <mxGeometry x="720" y="440" width="80" height="80" as="geometry" />
        </mxCell>
        <mxCell id="dJm7QAppJB-XsxKHxpHP-8" value="&lt;font style=&quot;&quot; size=&quot;1&quot;&gt;&lt;span style=&quot;font-size: 20px;&quot;&gt;5&lt;/span&gt;&lt;/font&gt;" style="ellipse;whiteSpace=wrap;html=1;aspect=fixed;fillColor=#086E67;strokeColor=#3039BF;gradientColor=#E02222;fontStyle=1" vertex="1" parent="1">
          <mxGeometry x="760" y="800" width="80" height="80" as="geometry" />
        </mxCell>
        <mxCell id="dJm7QAppJB-XsxKHxpHP-9" value="&lt;font style=&quot;&quot; size=&quot;1&quot;&gt;&lt;span style=&quot;font-size: 20px;&quot;&gt;8&lt;/span&gt;&lt;/font&gt;" style="ellipse;whiteSpace=wrap;html=1;aspect=fixed;fillColor=#9C6616;strokeColor=#3039BF;gradientColor=#2626E0;fontStyle=1;strokeWidth=5;" vertex="1" parent="1">
          <mxGeometry x="530" y="610" width="80" height="80" as="geometry" />
        </mxCell>
        <mxCell id="dJm7QAppJB-XsxKHxpHP-10" value="&lt;font style=&quot;&quot; size=&quot;1&quot;&gt;&lt;span style=&quot;font-size: 20px;&quot;&gt;15&lt;/span&gt;&lt;/font&gt;" style="ellipse;whiteSpace=wrap;html=1;aspect=fixed;fillColor=#086E67;strokeColor=#3039BF;gradientColor=#E0E03A;fontStyle=1" vertex="1" parent="1">
          <mxGeometry x="680" y="280" width="80" height="80" as="geometry" />
        </mxCell>
        <mxCell id="dJm7QAppJB-XsxKHxpHP-11" value="&lt;font style=&quot;&quot; size=&quot;1&quot;&gt;&lt;span style=&quot;font-size: 20px;&quot;&gt;20&lt;/span&gt;&lt;/font&gt;" style="ellipse;whiteSpace=wrap;html=1;aspect=fixed;fillColor=#086E67;strokeColor=#3039BF;gradientColor=#00E02D;fontStyle=1" vertex="1" parent="1">
          <mxGeometry x="1160" y="80" width="80" height="80" as="geometry" />
        </mxCell>
        <mxCell id="dJm7QAppJB-XsxKHxpHP-12" value="&lt;font style=&quot;&quot; size=&quot;1&quot;&gt;&lt;span style=&quot;font-size: 20px;&quot;&gt;14&lt;/span&gt;&lt;/font&gt;" style="ellipse;whiteSpace=wrap;html=1;aspect=fixed;fillColor=#086E67;strokeColor=#3039BF;gradientColor=#00E02D;fontStyle=1" vertex="1" parent="1">
          <mxGeometry x="1000" y="360" width="80" height="80" as="geometry" />
        </mxCell>
        <mxCell id="dJm7QAppJB-XsxKHxpHP-13" value="&lt;font style=&quot;&quot; size=&quot;1&quot;&gt;&lt;span style=&quot;font-size: 20px;&quot;&gt;13&lt;/span&gt;&lt;/font&gt;" style="ellipse;whiteSpace=wrap;html=1;aspect=fixed;fillColor=#086E67;strokeColor=#3039BF;gradientColor=#00E02D;fontStyle=1" vertex="1" parent="1">
          <mxGeometry x="920" y="470" width="80" height="80" as="geometry" />
        </mxCell>
        <mxCell id="dJm7QAppJB-XsxKHxpHP-14" value="&lt;font style=&quot;&quot; size=&quot;1&quot;&gt;&lt;span style=&quot;font-size: 20px;&quot;&gt;6&lt;/span&gt;&lt;/font&gt;" style="ellipse;whiteSpace=wrap;html=1;aspect=fixed;fillColor=#086E67;strokeColor=#3039BF;gradientColor=#E02222;fontStyle=1" vertex="1" parent="1">
          <mxGeometry x="1201" y="720" width="80" height="80" as="geometry" />
        </mxCell>
        <mxCell id="dJm7QAppJB-XsxKHxpHP-15" value="&lt;font style=&quot;&quot; size=&quot;1&quot;&gt;&lt;span style=&quot;font-size: 20px;&quot;&gt;7&lt;/span&gt;&lt;/font&gt;" style="ellipse;whiteSpace=wrap;html=1;aspect=fixed;fillColor=#086E67;strokeColor=#3039BF;gradientColor=#2626E0;fontStyle=1" vertex="1" parent="1">
          <mxGeometry x="200" y="600" width="80" height="80" as="geometry" />
        </mxCell>
        <mxCell id="dJm7QAppJB-XsxKHxpHP-16" value="&lt;font style=&quot;&quot; size=&quot;1&quot;&gt;&lt;span style=&quot;font-size: 20px;&quot;&gt;18&lt;/span&gt;&lt;/font&gt;" style="ellipse;whiteSpace=wrap;html=1;aspect=fixed;fillColor=#9C6616;strokeColor=#3039BF;gradientColor=#AB328F;fontStyle=1;strokeWidth=5;" vertex="1" parent="1">
          <mxGeometry x="200" y="160" width="80" height="80" as="geometry" />
        </mxCell>
        <mxCell id="dJm7QAppJB-XsxKHxpHP-17" value="&lt;font style=&quot;&quot; size=&quot;1&quot;&gt;&lt;span style=&quot;font-size: 20px;&quot;&gt;17&lt;/span&gt;&lt;/font&gt;" style="ellipse;whiteSpace=wrap;html=1;aspect=fixed;fillColor=#9C6616;strokeColor=#3039BF;gradientColor=#00E02D;fontStyle=1;strokeWidth=5;" vertex="1" parent="1">
          <mxGeometry x="1201" y="320" width="80" height="80" as="geometry" />
        </mxCell>
        <mxCell id="dJm7QAppJB-XsxKHxpHP-18" value="&lt;font style=&quot;&quot; size=&quot;1&quot;&gt;&lt;span style=&quot;font-size: 20px;&quot;&gt;19&lt;/span&gt;&lt;/font&gt;" style="ellipse;whiteSpace=wrap;html=1;aspect=fixed;fillColor=#086E67;strokeColor=#3039BF;gradientColor=#AB328F;fontStyle=1" vertex="1" parent="1">
          <mxGeometry x="520" y="200" width="80" height="80" as="geometry" />
        </mxCell>
        <mxCell id="dJm7QAppJB-XsxKHxpHP-19" value="&lt;font style=&quot;&quot; size=&quot;1&quot;&gt;&lt;span style=&quot;font-size: 20px;&quot;&gt;10&lt;/span&gt;&lt;/font&gt;" style="ellipse;whiteSpace=wrap;html=1;aspect=fixed;fillColor=#086E67;strokeColor=#3039BF;gradientColor=#2626E0;fontStyle=1" vertex="1" parent="1">
          <mxGeometry x="360" y="480" width="80" height="80" as="geometry" />
        </mxCell>
        <mxCell id="dJm7QAppJB-XsxKHxpHP-20" value="&lt;font style=&quot;&quot; size=&quot;1&quot;&gt;&lt;span style=&quot;font-size: 20px;&quot;&gt;0&lt;/span&gt;&lt;/font&gt;" style="ellipse;whiteSpace=wrap;html=1;aspect=fixed;fillColor=#086E67;strokeColor=#3039BF;gradientColor=#48E0D6;fontStyle=1" vertex="1" parent="1">
          <mxGeometry x="400" y="1040" width="80" height="80" as="geometry" />
        </mxCell>
        <mxCell id="dJm7QAppJB-XsxKHxpHP-21" value="&lt;font style=&quot;&quot; size=&quot;1&quot;&gt;&lt;span style=&quot;font-size: 20px;&quot;&gt;4&lt;/span&gt;&lt;/font&gt;" style="ellipse;whiteSpace=wrap;html=1;aspect=fixed;fillColor=#086E67;strokeColor=#3039BF;gradientColor=#48E0D6;fontStyle=1" vertex="1" parent="1">
          <mxGeometry x="40" y="800" width="80" height="80" as="geometry" />
        </mxCell>
        <mxCell id="dJm7QAppJB-XsxKHxpHP-22" value="" style="endArrow=none;html=1;rounded=0;strokeColor=#08612E;strokeWidth=6;entryX=1;entryY=1;entryDx=0;entryDy=0;exitX=0;exitY=0;exitDx=0;exitDy=0;" edge="1" parent="1" source="dJm7QAppJB-XsxKHxpHP-20" target="dJm7QAppJB-XsxKHxpHP-21">
          <mxGeometry width="50" height="50" relative="1" as="geometry">
            <mxPoint x="622" y="1008" as="sourcePoint" />
            <mxPoint x="460" y="1070" as="targetPoint" />
          </mxGeometry>
        </mxCell>
        <mxCell id="dJm7QAppJB-XsxKHxpHP-23" value="&lt;font style=&quot;font-size: 16px;&quot;&gt;&lt;b&gt;5&lt;/b&gt;&lt;/font&gt;" style="edgeLabel;html=1;align=center;verticalAlign=middle;resizable=0;points=[];" vertex="1" connectable="0" parent="dJm7QAppJB-XsxKHxpHP-22">
          <mxGeometry x="0.0413" y="-2" relative="1" as="geometry">
            <mxPoint as="offset" />
          </mxGeometry>
        </mxCell>
        <mxCell id="dJm7QAppJB-XsxKHxpHP-24" value="" style="endArrow=none;html=1;rounded=0;strokeColor=#08612E;strokeWidth=6;entryX=0;entryY=1;entryDx=0;entryDy=0;exitX=1;exitY=0.5;exitDx=0;exitDy=0;" edge="1" parent="1" source="dJm7QAppJB-XsxKHxpHP-20" target="dJm7QAppJB-XsxKHxpHP-3">
          <mxGeometry width="50" height="50" relative="1" as="geometry">
            <mxPoint x="392" y="1042" as="sourcePoint" />
            <mxPoint x="128" y="868" as="targetPoint" />
          </mxGeometry>
        </mxCell>
        <mxCell id="dJm7QAppJB-XsxKHxpHP-25" value="&lt;font style=&quot;font-size: 16px;&quot;&gt;&lt;b&gt;3&lt;/b&gt;&lt;/font&gt;" style="edgeLabel;html=1;align=center;verticalAlign=middle;resizable=0;points=[];" vertex="1" connectable="0" parent="dJm7QAppJB-XsxKHxpHP-24">
          <mxGeometry x="0.0413" y="-2" relative="1" as="geometry">
            <mxPoint as="offset" />
          </mxGeometry>
        </mxCell>
        <mxCell id="dJm7QAppJB-XsxKHxpHP-26" value="" style="endArrow=none;html=1;rounded=0;strokeColor=#08612E;strokeWidth=6;entryX=0;entryY=1;entryDx=0;entryDy=0;exitX=1;exitY=0;exitDx=0;exitDy=0;" edge="1" parent="1" source="dJm7QAppJB-XsxKHxpHP-3" target="dJm7QAppJB-XsxKHxpHP-8">
          <mxGeometry width="50" height="50" relative="1" as="geometry">
            <mxPoint x="460" y="1070" as="sourcePoint" />
            <mxPoint x="621" y="1008" as="targetPoint" />
          </mxGeometry>
        </mxCell>
        <mxCell id="dJm7QAppJB-XsxKHxpHP-27" value="&lt;font style=&quot;font-size: 16px;&quot;&gt;&lt;b&gt;3&lt;/b&gt;&lt;/font&gt;" style="edgeLabel;html=1;align=center;verticalAlign=middle;resizable=0;points=[];" vertex="1" connectable="0" parent="dJm7QAppJB-XsxKHxpHP-26">
          <mxGeometry x="0.0413" y="-2" relative="1" as="geometry">
            <mxPoint as="offset" />
          </mxGeometry>
        </mxCell>
        <mxCell id="dJm7QAppJB-XsxKHxpHP-28" value="" style="endArrow=none;html=1;rounded=0;strokeColor=#08612E;strokeWidth=6;entryX=0;entryY=0;entryDx=0;entryDy=0;exitX=1;exitY=1;exitDx=0;exitDy=0;" edge="1" parent="1" source="dJm7QAppJB-XsxKHxpHP-3" target="dJm7QAppJB-XsxKHxpHP-2">
          <mxGeometry width="50" height="50" relative="1" as="geometry">
            <mxPoint x="678" y="952" as="sourcePoint" />
            <mxPoint x="786" y="878" as="targetPoint" />
          </mxGeometry>
        </mxCell>
        <mxCell id="dJm7QAppJB-XsxKHxpHP-29" value="&lt;font style=&quot;font-size: 16px;&quot;&gt;&lt;b&gt;3&lt;/b&gt;&lt;/font&gt;" style="edgeLabel;html=1;align=center;verticalAlign=middle;resizable=0;points=[];" vertex="1" connectable="0" parent="dJm7QAppJB-XsxKHxpHP-28">
          <mxGeometry x="0.0413" y="-2" relative="1" as="geometry">
            <mxPoint as="offset" />
          </mxGeometry>
        </mxCell>
        <mxCell id="dJm7QAppJB-XsxKHxpHP-30" value="" style="endArrow=none;html=1;rounded=0;strokeColor=#08612E;strokeWidth=6;entryX=0;entryY=1;entryDx=0;entryDy=0;exitX=1;exitY=0.5;exitDx=0;exitDy=0;" edge="1" parent="1" source="dJm7QAppJB-XsxKHxpHP-2" target="dJm7QAppJB-XsxKHxpHP-4">
          <mxGeometry width="50" height="50" relative="1" as="geometry">
            <mxPoint x="678" y="1008" as="sourcePoint" />
            <mxPoint x="792" y="1082" as="targetPoint" />
          </mxGeometry>
        </mxCell>
        <mxCell id="dJm7QAppJB-XsxKHxpHP-31" value="&lt;font style=&quot;font-size: 16px;&quot;&gt;&lt;b&gt;2&lt;/b&gt;&lt;/font&gt;" style="edgeLabel;html=1;align=center;verticalAlign=middle;resizable=0;points=[];" vertex="1" connectable="0" parent="dJm7QAppJB-XsxKHxpHP-30">
          <mxGeometry x="0.0413" y="-2" relative="1" as="geometry">
            <mxPoint as="offset" />
          </mxGeometry>
        </mxCell>
        <mxCell id="dJm7QAppJB-XsxKHxpHP-32" value="" style="endArrow=none;html=1;rounded=0;strokeColor=#08612E;strokeWidth=6;entryX=0;entryY=0;entryDx=0;entryDy=0;exitX=1;exitY=1;exitDx=0;exitDy=0;" edge="1" parent="1" source="dJm7QAppJB-XsxKHxpHP-8" target="dJm7QAppJB-XsxKHxpHP-4">
          <mxGeometry width="50" height="50" relative="1" as="geometry">
            <mxPoint x="860" y="1110" as="sourcePoint" />
            <mxPoint x="962" y="1087" as="targetPoint" />
          </mxGeometry>
        </mxCell>
        <mxCell id="dJm7QAppJB-XsxKHxpHP-33" value="&lt;font style=&quot;font-size: 16px;&quot;&gt;&lt;b&gt;4&lt;/b&gt;&lt;/font&gt;" style="edgeLabel;html=1;align=center;verticalAlign=middle;resizable=0;points=[];" vertex="1" connectable="0" parent="dJm7QAppJB-XsxKHxpHP-32">
          <mxGeometry x="0.0413" y="-2" relative="1" as="geometry">
            <mxPoint as="offset" />
          </mxGeometry>
        </mxCell>
        <mxCell id="dJm7QAppJB-XsxKHxpHP-34" value="" style="endArrow=none;html=1;rounded=0;strokeColor=#08612E;strokeWidth=6;entryX=0;entryY=1;entryDx=0;entryDy=0;exitX=1;exitY=0;exitDx=0;exitDy=0;" edge="1" parent="1" source="dJm7QAppJB-XsxKHxpHP-8" target="dJm7QAppJB-XsxKHxpHP-1">
          <mxGeometry width="50" height="50" relative="1" as="geometry">
            <mxPoint x="678" y="952" as="sourcePoint" />
            <mxPoint x="786" y="878" as="targetPoint" />
          </mxGeometry>
        </mxCell>
        <mxCell id="dJm7QAppJB-XsxKHxpHP-35" value="&lt;font style=&quot;font-size: 16px;&quot;&gt;&lt;b&gt;3&lt;/b&gt;&lt;/font&gt;" style="edgeLabel;html=1;align=center;verticalAlign=middle;resizable=0;points=[];" vertex="1" connectable="0" parent="dJm7QAppJB-XsxKHxpHP-34">
          <mxGeometry x="0.0413" y="-2" relative="1" as="geometry">
            <mxPoint as="offset" />
          </mxGeometry>
        </mxCell>
        <mxCell id="dJm7QAppJB-XsxKHxpHP-36" value="" style="endArrow=none;html=1;rounded=0;strokeColor=#08612E;strokeWidth=6;entryX=1;entryY=0.5;entryDx=0;entryDy=0;exitX=0;exitY=0;exitDx=0;exitDy=0;" edge="1" parent="1" source="dJm7QAppJB-XsxKHxpHP-14" target="dJm7QAppJB-XsxKHxpHP-1">
          <mxGeometry width="50" height="50" relative="1" as="geometry">
            <mxPoint x="843" y="822" as="sourcePoint" />
            <mxPoint x="882" y="708" as="targetPoint" />
          </mxGeometry>
        </mxCell>
        <mxCell id="dJm7QAppJB-XsxKHxpHP-37" value="&lt;font style=&quot;font-size: 16px;&quot;&gt;&lt;b&gt;5&lt;/b&gt;&lt;/font&gt;" style="edgeLabel;html=1;align=center;verticalAlign=middle;resizable=0;points=[];" vertex="1" connectable="0" parent="dJm7QAppJB-XsxKHxpHP-36">
          <mxGeometry x="0.0413" y="-2" relative="1" as="geometry">
            <mxPoint as="offset" />
          </mxGeometry>
        </mxCell>
        <mxCell id="dJm7QAppJB-XsxKHxpHP-38" value="" style="endArrow=none;html=1;rounded=0;strokeColor=#08612E;strokeWidth=6;entryX=0;entryY=1;entryDx=0;entryDy=0;exitX=0.5;exitY=0;exitDx=0;exitDy=0;" edge="1" parent="1" source="dJm7QAppJB-XsxKHxpHP-1" target="dJm7QAppJB-XsxKHxpHP-13">
          <mxGeometry width="50" height="50" relative="1" as="geometry">
            <mxPoint x="980" y="643" as="sourcePoint" />
            <mxPoint x="1082" y="620" as="targetPoint" />
          </mxGeometry>
        </mxCell>
        <mxCell id="dJm7QAppJB-XsxKHxpHP-39" value="&lt;font style=&quot;font-size: 16px;&quot;&gt;&lt;b&gt;2&lt;/b&gt;&lt;/font&gt;" style="edgeLabel;html=1;align=center;verticalAlign=middle;resizable=0;points=[];" vertex="1" connectable="0" parent="dJm7QAppJB-XsxKHxpHP-38">
          <mxGeometry x="0.0413" y="-2" relative="1" as="geometry">
            <mxPoint as="offset" />
          </mxGeometry>
        </mxCell>
        <mxCell id="dJm7QAppJB-XsxKHxpHP-40" value="" style="endArrow=none;html=1;rounded=0;strokeColor=#08612E;strokeWidth=6;entryX=1;entryY=0;entryDx=0;entryDy=0;exitX=0;exitY=1;exitDx=0;exitDy=0;" edge="1" parent="1" source="dJm7QAppJB-XsxKHxpHP-12" target="dJm7QAppJB-XsxKHxpHP-13">
          <mxGeometry width="50" height="50" relative="1" as="geometry">
            <mxPoint x="910" y="640" as="sourcePoint" />
            <mxPoint x="942" y="548" as="targetPoint" />
          </mxGeometry>
        </mxCell>
        <mxCell id="dJm7QAppJB-XsxKHxpHP-41" value="&lt;font style=&quot;font-size: 16px;&quot;&gt;&lt;b&gt;1&lt;/b&gt;&lt;/font&gt;" style="edgeLabel;html=1;align=center;verticalAlign=middle;resizable=0;points=[];" vertex="1" connectable="0" parent="dJm7QAppJB-XsxKHxpHP-40">
          <mxGeometry x="0.0413" y="-2" relative="1" as="geometry">
            <mxPoint as="offset" />
          </mxGeometry>
        </mxCell>
        <mxCell id="dJm7QAppJB-XsxKHxpHP-42" value="" style="endArrow=none;html=1;rounded=0;strokeColor=#08612E;strokeWidth=6;entryX=0;entryY=1;entryDx=0;entryDy=0;exitX=1;exitY=0;exitDx=0;exitDy=0;" edge="1" parent="1" source="dJm7QAppJB-XsxKHxpHP-21" target="dJm7QAppJB-XsxKHxpHP-15">
          <mxGeometry width="50" height="50" relative="1" as="geometry">
            <mxPoint x="838" y="878" as="sourcePoint" />
            <mxPoint x="981" y="1022" as="targetPoint" />
          </mxGeometry>
        </mxCell>
        <mxCell id="dJm7QAppJB-XsxKHxpHP-43" value="&lt;font style=&quot;font-size: 16px;&quot;&gt;&lt;b&gt;4&lt;/b&gt;&lt;/font&gt;" style="edgeLabel;html=1;align=center;verticalAlign=middle;resizable=0;points=[];" vertex="1" connectable="0" parent="dJm7QAppJB-XsxKHxpHP-42">
          <mxGeometry x="0.0413" y="-2" relative="1" as="geometry">
            <mxPoint as="offset" />
          </mxGeometry>
        </mxCell>
        <mxCell id="dJm7QAppJB-XsxKHxpHP-44" value="" style="endArrow=none;html=1;rounded=0;strokeColor=#08612E;strokeWidth=6;entryX=1;entryY=0.5;entryDx=0;entryDy=0;exitX=0;exitY=0.5;exitDx=0;exitDy=0;" edge="1" parent="1" source="dJm7QAppJB-XsxKHxpHP-9" target="dJm7QAppJB-XsxKHxpHP-15">
          <mxGeometry width="50" height="50" relative="1" as="geometry">
            <mxPoint x="422" y="1062" as="sourcePoint" />
            <mxPoint x="118" y="878" as="targetPoint" />
          </mxGeometry>
        </mxCell>
        <mxCell id="dJm7QAppJB-XsxKHxpHP-45" value="&lt;font style=&quot;font-size: 16px;&quot;&gt;&lt;b&gt;5&lt;/b&gt;&lt;/font&gt;" style="edgeLabel;html=1;align=center;verticalAlign=middle;resizable=0;points=[];" vertex="1" connectable="0" parent="dJm7QAppJB-XsxKHxpHP-44">
          <mxGeometry x="0.0413" y="-2" relative="1" as="geometry">
            <mxPoint as="offset" />
          </mxGeometry>
        </mxCell>
        <mxCell id="dJm7QAppJB-XsxKHxpHP-46" value="" style="endArrow=none;html=1;rounded=0;strokeColor=#08612E;strokeWidth=6;entryX=0;entryY=1;entryDx=0;entryDy=0;exitX=1;exitY=0;exitDx=0;exitDy=0;" edge="1" parent="1" source="dJm7QAppJB-XsxKHxpHP-15" target="dJm7QAppJB-XsxKHxpHP-19">
          <mxGeometry width="50" height="50" relative="1" as="geometry">
            <mxPoint x="490" y="1090" as="sourcePoint" />
            <mxPoint x="622" y="998" as="targetPoint" />
          </mxGeometry>
        </mxCell>
        <mxCell id="dJm7QAppJB-XsxKHxpHP-47" value="&lt;font style=&quot;font-size: 16px;&quot;&gt;&lt;b&gt;3&lt;/b&gt;&lt;/font&gt;" style="edgeLabel;html=1;align=center;verticalAlign=middle;resizable=0;points=[];" vertex="1" connectable="0" parent="dJm7QAppJB-XsxKHxpHP-46">
          <mxGeometry x="0.0413" y="-2" relative="1" as="geometry">
            <mxPoint as="offset" />
          </mxGeometry>
        </mxCell>
        <mxCell id="dJm7QAppJB-XsxKHxpHP-48" value="" style="endArrow=none;html=1;rounded=0;strokeColor=#08612E;strokeWidth=6;entryX=0;entryY=0;entryDx=0;entryDy=0;exitX=1;exitY=1;exitDx=0;exitDy=0;" edge="1" parent="1" source="dJm7QAppJB-XsxKHxpHP-19" target="dJm7QAppJB-XsxKHxpHP-9">
          <mxGeometry width="50" height="50" relative="1" as="geometry">
            <mxPoint x="278" y="622" as="sourcePoint" />
            <mxPoint x="382" y="558" as="targetPoint" />
          </mxGeometry>
        </mxCell>
        <mxCell id="dJm7QAppJB-XsxKHxpHP-49" value="&lt;font style=&quot;font-size: 16px;&quot;&gt;&lt;b&gt;3&lt;/b&gt;&lt;/font&gt;" style="edgeLabel;html=1;align=center;verticalAlign=middle;resizable=0;points=[];" vertex="1" connectable="0" parent="dJm7QAppJB-XsxKHxpHP-48">
          <mxGeometry x="0.0413" y="-2" relative="1" as="geometry">
            <mxPoint as="offset" />
          </mxGeometry>
        </mxCell>
        <mxCell id="dJm7QAppJB-XsxKHxpHP-50" value="" style="endArrow=none;html=1;rounded=0;strokeColor=#08612E;strokeWidth=6;entryX=0.5;entryY=0;entryDx=0;entryDy=0;exitX=0.5;exitY=1;exitDx=0;exitDy=0;" edge="1" parent="1" source="dJm7QAppJB-XsxKHxpHP-5" target="dJm7QAppJB-XsxKHxpHP-9">
          <mxGeometry width="50" height="50" relative="1" as="geometry">
            <mxPoint x="438" y="558" as="sourcePoint" />
            <mxPoint x="552" y="632" as="targetPoint" />
          </mxGeometry>
        </mxCell>
        <mxCell id="dJm7QAppJB-XsxKHxpHP-51" value="&lt;font style=&quot;font-size: 16px;&quot;&gt;&lt;b&gt;2&lt;/b&gt;&lt;/font&gt;" style="edgeLabel;html=1;align=center;verticalAlign=middle;resizable=0;points=[];" vertex="1" connectable="0" parent="dJm7QAppJB-XsxKHxpHP-50">
          <mxGeometry x="0.0413" y="-2" relative="1" as="geometry">
            <mxPoint as="offset" />
          </mxGeometry>
        </mxCell>
        <mxCell id="dJm7QAppJB-XsxKHxpHP-52" value="" style="endArrow=none;html=1;rounded=0;strokeColor=#08612E;strokeWidth=6;entryX=1;entryY=0.5;entryDx=0;entryDy=0;exitX=0;exitY=0.5;exitDx=0;exitDy=0;" edge="1" parent="1" source="dJm7QAppJB-XsxKHxpHP-5" target="dJm7QAppJB-XsxKHxpHP-19">
          <mxGeometry width="50" height="50" relative="1" as="geometry">
            <mxPoint x="570" y="530" as="sourcePoint" />
            <mxPoint x="580" y="620" as="targetPoint" />
          </mxGeometry>
        </mxCell>
        <mxCell id="dJm7QAppJB-XsxKHxpHP-53" value="&lt;font style=&quot;font-size: 16px;&quot;&gt;&lt;b&gt;2&lt;/b&gt;&lt;/font&gt;" style="edgeLabel;html=1;align=center;verticalAlign=middle;resizable=0;points=[];" vertex="1" connectable="0" parent="dJm7QAppJB-XsxKHxpHP-52">
          <mxGeometry x="0.0413" y="-2" relative="1" as="geometry">
            <mxPoint as="offset" />
          </mxGeometry>
        </mxCell>
        <mxCell id="dJm7QAppJB-XsxKHxpHP-54" value="" style="endArrow=none;html=1;rounded=0;strokeColor=#08612E;strokeWidth=6;entryX=0;entryY=0.5;entryDx=0;entryDy=0;exitX=1;exitY=0.5;exitDx=0;exitDy=0;" edge="1" parent="1" source="dJm7QAppJB-XsxKHxpHP-5" target="dJm7QAppJB-XsxKHxpHP-7">
          <mxGeometry width="50" height="50" relative="1" as="geometry">
            <mxPoint x="438" y="558" as="sourcePoint" />
            <mxPoint x="552" y="632" as="targetPoint" />
          </mxGeometry>
        </mxCell>
        <mxCell id="dJm7QAppJB-XsxKHxpHP-55" value="&lt;font style=&quot;font-size: 16px;&quot;&gt;&lt;b&gt;3&lt;/b&gt;&lt;/font&gt;" style="edgeLabel;html=1;align=center;verticalAlign=middle;resizable=0;points=[];" vertex="1" connectable="0" parent="dJm7QAppJB-XsxKHxpHP-54">
          <mxGeometry x="0.0413" y="-2" relative="1" as="geometry">
            <mxPoint as="offset" />
          </mxGeometry>
        </mxCell>
        <mxCell id="dJm7QAppJB-XsxKHxpHP-56" value="" style="endArrow=none;html=1;rounded=0;strokeColor=#08612E;strokeWidth=6;entryX=0;entryY=1;entryDx=0;entryDy=0;exitX=1;exitY=0;exitDx=0;exitDy=0;" edge="1" parent="1" source="dJm7QAppJB-XsxKHxpHP-9" target="dJm7QAppJB-XsxKHxpHP-7">
          <mxGeometry width="50" height="50" relative="1" as="geometry">
            <mxPoint x="838" y="878" as="sourcePoint" />
            <mxPoint x="982" y="1022" as="targetPoint" />
          </mxGeometry>
        </mxCell>
        <mxCell id="dJm7QAppJB-XsxKHxpHP-57" value="&lt;font style=&quot;font-size: 16px;&quot;&gt;&lt;b&gt;4&lt;/b&gt;&lt;/font&gt;" style="edgeLabel;html=1;align=center;verticalAlign=middle;resizable=0;points=[];" vertex="1" connectable="0" parent="dJm7QAppJB-XsxKHxpHP-56">
          <mxGeometry x="0.0413" y="-2" relative="1" as="geometry">
            <mxPoint as="offset" />
          </mxGeometry>
        </mxCell>
        <mxCell id="dJm7QAppJB-XsxKHxpHP-58" value="" style="endArrow=none;html=1;rounded=0;strokeColor=#08612E;strokeWidth=6;entryX=0;entryY=0.5;entryDx=0;entryDy=0;exitX=1;exitY=0.5;exitDx=0;exitDy=0;" edge="1" parent="1" source="dJm7QAppJB-XsxKHxpHP-7" target="dJm7QAppJB-XsxKHxpHP-13">
          <mxGeometry width="50" height="50" relative="1" as="geometry">
            <mxPoint x="610" y="490" as="sourcePoint" />
            <mxPoint x="730" y="490" as="targetPoint" />
          </mxGeometry>
        </mxCell>
        <mxCell id="dJm7QAppJB-XsxKHxpHP-59" value="&lt;font style=&quot;font-size: 16px;&quot;&gt;&lt;b&gt;3&lt;/b&gt;&lt;/font&gt;" style="edgeLabel;html=1;align=center;verticalAlign=middle;resizable=0;points=[];" vertex="1" connectable="0" parent="dJm7QAppJB-XsxKHxpHP-58">
          <mxGeometry x="0.0413" y="-2" relative="1" as="geometry">
            <mxPoint as="offset" />
          </mxGeometry>
        </mxCell>
        <mxCell id="dJm7QAppJB-XsxKHxpHP-60" value="" style="endArrow=none;html=1;rounded=0;strokeColor=#08612E;strokeWidth=6;entryX=1;entryY=1;entryDx=0;entryDy=0;exitX=0;exitY=0;exitDx=0;exitDy=0;" edge="1" parent="1" source="dJm7QAppJB-XsxKHxpHP-1" target="dJm7QAppJB-XsxKHxpHP-7">
          <mxGeometry width="50" height="50" relative="1" as="geometry">
            <mxPoint x="608" y="632" as="sourcePoint" />
            <mxPoint x="742" y="518" as="targetPoint" />
          </mxGeometry>
        </mxCell>
        <mxCell id="dJm7QAppJB-XsxKHxpHP-61" value="&lt;font style=&quot;font-size: 16px;&quot;&gt;&lt;b&gt;4&lt;/b&gt;&lt;/font&gt;" style="edgeLabel;html=1;align=center;verticalAlign=middle;resizable=0;points=[];" vertex="1" connectable="0" parent="dJm7QAppJB-XsxKHxpHP-60">
          <mxGeometry x="0.0413" y="-2" relative="1" as="geometry">
            <mxPoint as="offset" />
          </mxGeometry>
        </mxCell>
        <mxCell id="dJm7QAppJB-XsxKHxpHP-62" value="" style="endArrow=none;html=1;rounded=0;strokeColor=#08612E;strokeWidth=6;entryX=0;entryY=1;entryDx=0;entryDy=0;exitX=1;exitY=0;exitDx=0;exitDy=0;" edge="1" parent="1" source="dJm7QAppJB-XsxKHxpHP-7" target="dJm7QAppJB-XsxKHxpHP-6">
          <mxGeometry width="50" height="50" relative="1" as="geometry">
            <mxPoint x="810" y="490" as="sourcePoint" />
            <mxPoint x="930" y="520" as="targetPoint" />
          </mxGeometry>
        </mxCell>
        <mxCell id="dJm7QAppJB-XsxKHxpHP-63" value="&lt;font style=&quot;font-size: 16px;&quot;&gt;&lt;b&gt;1&lt;/b&gt;&lt;/font&gt;" style="edgeLabel;html=1;align=center;verticalAlign=middle;resizable=0;points=[];" vertex="1" connectable="0" parent="dJm7QAppJB-XsxKHxpHP-62">
          <mxGeometry x="0.0413" y="-2" relative="1" as="geometry">
            <mxPoint as="offset" />
          </mxGeometry>
        </mxCell>
        <mxCell id="dJm7QAppJB-XsxKHxpHP-64" value="" style="endArrow=none;html=1;rounded=0;strokeColor=#08612E;strokeWidth=6;entryX=0;entryY=0.5;entryDx=0;entryDy=0;exitX=1;exitY=1;exitDx=0;exitDy=0;" edge="1" parent="1" source="dJm7QAppJB-XsxKHxpHP-10" target="dJm7QAppJB-XsxKHxpHP-6">
          <mxGeometry width="50" height="50" relative="1" as="geometry">
            <mxPoint x="798" y="462" as="sourcePoint" />
            <mxPoint x="822" y="398" as="targetPoint" />
          </mxGeometry>
        </mxCell>
        <mxCell id="dJm7QAppJB-XsxKHxpHP-65" value="&lt;font style=&quot;font-size: 16px;&quot;&gt;&lt;b&gt;1&lt;/b&gt;&lt;/font&gt;" style="edgeLabel;html=1;align=center;verticalAlign=middle;resizable=0;points=[];" vertex="1" connectable="0" parent="dJm7QAppJB-XsxKHxpHP-64">
          <mxGeometry x="0.0413" y="-2" relative="1" as="geometry">
            <mxPoint as="offset" />
          </mxGeometry>
        </mxCell>
        <mxCell id="dJm7QAppJB-XsxKHxpHP-66" value="" style="endArrow=none;html=1;rounded=0;strokeColor=#08612E;strokeWidth=6;entryX=0;entryY=0;entryDx=0;entryDy=0;exitX=0.5;exitY=1;exitDx=0;exitDy=0;" edge="1" parent="1" source="dJm7QAppJB-XsxKHxpHP-10" target="dJm7QAppJB-XsxKHxpHP-7">
          <mxGeometry width="50" height="50" relative="1" as="geometry">
            <mxPoint x="730" y="400" as="sourcePoint" />
            <mxPoint x="580" y="620" as="targetPoint" />
          </mxGeometry>
        </mxCell>
        <mxCell id="dJm7QAppJB-XsxKHxpHP-67" value="&lt;font style=&quot;font-size: 16px;&quot;&gt;&lt;b&gt;2&lt;/b&gt;&lt;/font&gt;" style="edgeLabel;html=1;align=center;verticalAlign=middle;resizable=0;points=[];" vertex="1" connectable="0" parent="dJm7QAppJB-XsxKHxpHP-66">
          <mxGeometry x="0.0413" y="-2" relative="1" as="geometry">
            <mxPoint as="offset" />
          </mxGeometry>
        </mxCell>
        <mxCell id="dJm7QAppJB-XsxKHxpHP-68" value="" style="endArrow=none;html=1;rounded=0;strokeColor=#08612E;strokeWidth=6;entryX=0;entryY=0.5;entryDx=0;entryDy=0;exitX=1;exitY=1;exitDx=0;exitDy=0;" edge="1" parent="1" source="dJm7QAppJB-XsxKHxpHP-18" target="dJm7QAppJB-XsxKHxpHP-10">
          <mxGeometry width="50" height="50" relative="1" as="geometry">
            <mxPoint x="610" y="490" as="sourcePoint" />
            <mxPoint x="730" y="490" as="targetPoint" />
          </mxGeometry>
        </mxCell>
        <mxCell id="dJm7QAppJB-XsxKHxpHP-69" value="&lt;font style=&quot;font-size: 16px;&quot;&gt;&lt;b&gt;2&lt;/b&gt;&lt;/font&gt;" style="edgeLabel;html=1;align=center;verticalAlign=middle;resizable=0;points=[];" vertex="1" connectable="0" parent="dJm7QAppJB-XsxKHxpHP-68">
          <mxGeometry x="0.0413" y="-2" relative="1" as="geometry">
            <mxPoint as="offset" />
          </mxGeometry>
        </mxCell>
        <mxCell id="dJm7QAppJB-XsxKHxpHP-70" value="" style="endArrow=none;html=1;rounded=0;strokeColor=#08612E;strokeWidth=6;entryX=0.5;entryY=1;entryDx=0;entryDy=0;exitX=0.5;exitY=0;exitDx=0;exitDy=0;" edge="1" parent="1" source="dJm7QAppJB-XsxKHxpHP-5" target="dJm7QAppJB-XsxKHxpHP-18">
          <mxGeometry width="50" height="50" relative="1" as="geometry">
            <mxPoint x="608" y="632" as="sourcePoint" />
            <mxPoint x="742" y="518" as="targetPoint" />
          </mxGeometry>
        </mxCell>
        <mxCell id="dJm7QAppJB-XsxKHxpHP-71" value="&lt;font style=&quot;font-size: 16px;&quot;&gt;&lt;b&gt;4&lt;/b&gt;&lt;/font&gt;" style="edgeLabel;html=1;align=center;verticalAlign=middle;resizable=0;points=[];" vertex="1" connectable="0" parent="dJm7QAppJB-XsxKHxpHP-70">
          <mxGeometry x="0.0413" y="-2" relative="1" as="geometry">
            <mxPoint as="offset" />
          </mxGeometry>
        </mxCell>
        <mxCell id="dJm7QAppJB-XsxKHxpHP-72" value="" style="endArrow=none;html=1;rounded=0;strokeColor=#08612E;strokeWidth=6;entryX=0;entryY=1;entryDx=0;entryDy=0;exitX=1;exitY=0;exitDx=0;exitDy=0;" edge="1" parent="1" source="dJm7QAppJB-XsxKHxpHP-5" target="dJm7QAppJB-XsxKHxpHP-10">
          <mxGeometry width="50" height="50" relative="1" as="geometry">
            <mxPoint x="570" y="450" as="sourcePoint" />
            <mxPoint x="570" y="290" as="targetPoint" />
          </mxGeometry>
        </mxCell>
        <mxCell id="dJm7QAppJB-XsxKHxpHP-73" value="&lt;font style=&quot;font-size: 16px;&quot;&gt;&lt;b&gt;4&lt;/b&gt;&lt;/font&gt;" style="edgeLabel;html=1;align=center;verticalAlign=middle;resizable=0;points=[];" vertex="1" connectable="0" parent="dJm7QAppJB-XsxKHxpHP-72">
          <mxGeometry x="0.0413" y="-2" relative="1" as="geometry">
            <mxPoint as="offset" />
          </mxGeometry>
        </mxCell>
        <mxCell id="dJm7QAppJB-XsxKHxpHP-74" value="" style="endArrow=none;html=1;rounded=0;strokeColor=#08612E;strokeWidth=6;exitX=0;exitY=0.5;exitDx=0;exitDy=0;entryX=1;entryY=0.5;entryDx=0;entryDy=0;" edge="1" parent="1" source="dJm7QAppJB-XsxKHxpHP-18" target="dJm7QAppJB-XsxKHxpHP-16">
          <mxGeometry width="50" height="50" relative="1" as="geometry">
            <mxPoint x="500" y="260" as="sourcePoint" />
            <mxPoint x="340" y="390" as="targetPoint" />
          </mxGeometry>
        </mxCell>
        <mxCell id="dJm7QAppJB-XsxKHxpHP-75" value="&lt;font style=&quot;font-size: 16px;&quot;&gt;&lt;b&gt;5&lt;/b&gt;&lt;/font&gt;" style="edgeLabel;html=1;align=center;verticalAlign=middle;resizable=0;points=[];" vertex="1" connectable="0" parent="dJm7QAppJB-XsxKHxpHP-74">
          <mxGeometry x="0.0413" y="-2" relative="1" as="geometry">
            <mxPoint as="offset" />
          </mxGeometry>
        </mxCell>
        <mxCell id="dJm7QAppJB-XsxKHxpHP-76" value="" style="endArrow=none;html=1;rounded=0;strokeColor=#08612E;strokeWidth=6;entryX=0;entryY=0.5;entryDx=0;entryDy=0;exitX=1;exitY=0.5;exitDx=0;exitDy=0;" edge="1" parent="1" source="dJm7QAppJB-XsxKHxpHP-6" target="dJm7QAppJB-XsxKHxpHP-12">
          <mxGeometry width="50" height="50" relative="1" as="geometry">
            <mxPoint x="598" y="462" as="sourcePoint" />
            <mxPoint x="702" y="358" as="targetPoint" />
          </mxGeometry>
        </mxCell>
        <mxCell id="dJm7QAppJB-XsxKHxpHP-77" value="&lt;font style=&quot;font-size: 16px;&quot;&gt;&lt;b&gt;3&lt;/b&gt;&lt;/font&gt;" style="edgeLabel;html=1;align=center;verticalAlign=middle;resizable=0;points=[];" vertex="1" connectable="0" parent="dJm7QAppJB-XsxKHxpHP-76">
          <mxGeometry x="0.0413" y="-2" relative="1" as="geometry">
            <mxPoint as="offset" />
          </mxGeometry>
        </mxCell>
        <mxCell id="dJm7QAppJB-XsxKHxpHP-78" value="" style="endArrow=none;html=1;rounded=0;strokeColor=#08612E;strokeWidth=6;entryX=0;entryY=0;entryDx=0;entryDy=0;exitX=1;exitY=1;exitDx=0;exitDy=0;" edge="1" parent="1" source="dJm7QAppJB-XsxKHxpHP-6" target="dJm7QAppJB-XsxKHxpHP-13">
          <mxGeometry width="50" height="50" relative="1" as="geometry">
            <mxPoint x="890" y="370" as="sourcePoint" />
            <mxPoint x="1010" y="410" as="targetPoint" />
          </mxGeometry>
        </mxCell>
        <mxCell id="dJm7QAppJB-XsxKHxpHP-79" value="&lt;font style=&quot;font-size: 16px;&quot;&gt;&lt;b&gt;2&lt;/b&gt;&lt;/font&gt;" style="edgeLabel;html=1;align=center;verticalAlign=middle;resizable=0;points=[];" vertex="1" connectable="0" parent="dJm7QAppJB-XsxKHxpHP-78">
          <mxGeometry x="0.0413" y="-2" relative="1" as="geometry">
            <mxPoint as="offset" />
          </mxGeometry>
        </mxCell>
        <mxCell id="dJm7QAppJB-XsxKHxpHP-80" value="" style="endArrow=none;html=1;rounded=0;strokeColor=#08612E;strokeWidth=6;entryX=0;entryY=0;entryDx=0;entryDy=0;exitX=1;exitY=1;exitDx=0;exitDy=0;" edge="1" parent="1" source="dJm7QAppJB-XsxKHxpHP-9" target="dJm7QAppJB-XsxKHxpHP-8">
          <mxGeometry width="50" height="50" relative="1" as="geometry">
            <mxPoint x="608" y="632" as="sourcePoint" />
            <mxPoint x="742" y="518" as="targetPoint" />
          </mxGeometry>
        </mxCell>
        <mxCell id="dJm7QAppJB-XsxKHxpHP-81" value="&lt;font style=&quot;font-size: 16px;&quot;&gt;&lt;b&gt;4&lt;/b&gt;&lt;/font&gt;" style="edgeLabel;html=1;align=center;verticalAlign=middle;resizable=0;points=[];" vertex="1" connectable="0" parent="dJm7QAppJB-XsxKHxpHP-80">
          <mxGeometry x="0.0413" y="-2" relative="1" as="geometry">
            <mxPoint as="offset" />
          </mxGeometry>
        </mxCell>
        <mxCell id="dJm7QAppJB-XsxKHxpHP-82" value="" style="endArrow=none;html=1;rounded=0;strokeColor=#08612E;strokeWidth=6;entryX=1;entryY=0.5;entryDx=0;entryDy=0;exitX=0;exitY=0.5;exitDx=0;exitDy=0;" edge="1" parent="1" source="dJm7QAppJB-XsxKHxpHP-1" target="dJm7QAppJB-XsxKHxpHP-9">
          <mxGeometry width="50" height="50" relative="1" as="geometry">
            <mxPoint x="540" y="660" as="sourcePoint" />
            <mxPoint x="290" y="650" as="targetPoint" />
          </mxGeometry>
        </mxCell>
        <mxCell id="dJm7QAppJB-XsxKHxpHP-83" value="&lt;font style=&quot;font-size: 16px;&quot;&gt;&lt;b&gt;5&lt;/b&gt;&lt;/font&gt;" style="edgeLabel;html=1;align=center;verticalAlign=middle;resizable=0;points=[];" vertex="1" connectable="0" parent="dJm7QAppJB-XsxKHxpHP-82">
          <mxGeometry x="0.0413" y="-2" relative="1" as="geometry">
            <mxPoint as="offset" />
          </mxGeometry>
        </mxCell>
        <mxCell id="dJm7QAppJB-XsxKHxpHP-84" value="" style="endArrow=none;html=1;rounded=0;strokeColor=#08612E;strokeWidth=6;entryX=0.5;entryY=1;entryDx=0;entryDy=0;exitX=0.5;exitY=0;exitDx=0;exitDy=0;" edge="1" parent="1" source="dJm7QAppJB-XsxKHxpHP-14" target="dJm7QAppJB-XsxKHxpHP-17">
          <mxGeometry width="50" height="50" relative="1" as="geometry">
            <mxPoint x="1223" y="742" as="sourcePoint" />
            <mxPoint x="970" y="690" as="targetPoint" />
          </mxGeometry>
        </mxCell>
        <mxCell id="dJm7QAppJB-XsxKHxpHP-85" value="&lt;font style=&quot;font-size: 16px;&quot;&gt;&lt;b&gt;5&lt;/b&gt;&lt;/font&gt;" style="edgeLabel;html=1;align=center;verticalAlign=middle;resizable=0;points=[];" vertex="1" connectable="0" parent="dJm7QAppJB-XsxKHxpHP-84">
          <mxGeometry x="0.0413" y="-2" relative="1" as="geometry">
            <mxPoint as="offset" />
          </mxGeometry>
        </mxCell>
        <mxCell id="dJm7QAppJB-XsxKHxpHP-86" value="" style="endArrow=none;html=1;rounded=0;strokeColor=#08612E;strokeWidth=6;entryX=0;entryY=0.5;entryDx=0;entryDy=0;exitX=1;exitY=0.5;exitDx=0;exitDy=0;" edge="1" parent="1" source="dJm7QAppJB-XsxKHxpHP-12" target="dJm7QAppJB-XsxKHxpHP-17">
          <mxGeometry width="50" height="50" relative="1" as="geometry">
            <mxPoint x="890" y="370" as="sourcePoint" />
            <mxPoint x="1010" y="410" as="targetPoint" />
          </mxGeometry>
        </mxCell>
        <mxCell id="dJm7QAppJB-XsxKHxpHP-87" value="&lt;font style=&quot;font-size: 16px;&quot;&gt;&lt;b&gt;3&lt;/b&gt;&lt;/font&gt;" style="edgeLabel;html=1;align=center;verticalAlign=middle;resizable=0;points=[];" vertex="1" connectable="0" parent="dJm7QAppJB-XsxKHxpHP-86">
          <mxGeometry x="0.0413" y="-2" relative="1" as="geometry">
            <mxPoint as="offset" />
          </mxGeometry>
        </mxCell>
        <mxCell id="dJm7QAppJB-XsxKHxpHP-88" value="" style="endArrow=none;html=1;rounded=0;strokeColor=#08612E;strokeWidth=6;entryX=0;entryY=1;entryDx=0;entryDy=0;exitX=1;exitY=0;exitDx=0;exitDy=0;" edge="1" parent="1" source="dJm7QAppJB-XsxKHxpHP-4" target="dJm7QAppJB-XsxKHxpHP-14">
          <mxGeometry width="50" height="50" relative="1" as="geometry">
            <mxPoint x="1070" y="1010" as="sourcePoint" />
            <mxPoint x="970" y="690" as="targetPoint" />
          </mxGeometry>
        </mxCell>
        <mxCell id="dJm7QAppJB-XsxKHxpHP-89" value="&lt;font style=&quot;font-size: 16px;&quot;&gt;&lt;b&gt;5&lt;/b&gt;&lt;/font&gt;" style="edgeLabel;html=1;align=center;verticalAlign=middle;resizable=0;points=[];" vertex="1" connectable="0" parent="dJm7QAppJB-XsxKHxpHP-88">
          <mxGeometry x="0.0413" y="-2" relative="1" as="geometry">
            <mxPoint as="offset" />
          </mxGeometry>
        </mxCell>
        <mxCell id="dJm7QAppJB-XsxKHxpHP-90" value="" style="endArrow=none;html=1;rounded=0;strokeColor=#08612E;strokeWidth=6;entryX=0.5;entryY=1;entryDx=0;entryDy=0;exitX=0.5;exitY=0;exitDx=0;exitDy=0;" edge="1" parent="1" source="dJm7QAppJB-XsxKHxpHP-15" target="dJm7QAppJB-XsxKHxpHP-16">
          <mxGeometry width="50" height="50" relative="1" as="geometry">
            <mxPoint x="278" y="622" as="sourcePoint" />
            <mxPoint x="382" y="558" as="targetPoint" />
          </mxGeometry>
        </mxCell>
        <mxCell id="dJm7QAppJB-XsxKHxpHP-91" value="&lt;font style=&quot;font-size: 16px;&quot;&gt;&lt;b&gt;7&lt;/b&gt;&lt;/font&gt;" style="edgeLabel;html=1;align=center;verticalAlign=middle;resizable=0;points=[];" vertex="1" connectable="0" parent="dJm7QAppJB-XsxKHxpHP-90">
          <mxGeometry x="0.0413" y="-2" relative="1" as="geometry">
            <mxPoint as="offset" />
          </mxGeometry>
        </mxCell>
        <mxCell id="dJm7QAppJB-XsxKHxpHP-92" value="" style="endArrow=none;html=1;rounded=0;strokeColor=#08612E;strokeWidth=6;entryX=0.5;entryY=0;entryDx=0;entryDy=0;exitX=0.5;exitY=1;exitDx=0;exitDy=0;" edge="1" parent="1" source="dJm7QAppJB-XsxKHxpHP-11" target="dJm7QAppJB-XsxKHxpHP-17">
          <mxGeometry width="50" height="50" relative="1" as="geometry">
            <mxPoint x="1080" y="280" as="sourcePoint" />
            <mxPoint x="1201" y="240" as="targetPoint" />
          </mxGeometry>
        </mxCell>
        <mxCell id="dJm7QAppJB-XsxKHxpHP-93" value="&lt;font style=&quot;font-size: 16px;&quot;&gt;&lt;b&gt;4&lt;/b&gt;&lt;/font&gt;" style="edgeLabel;html=1;align=center;verticalAlign=middle;resizable=0;points=[];" vertex="1" connectable="0" parent="dJm7QAppJB-XsxKHxpHP-92">
          <mxGeometry x="0.0413" y="-2" relative="1" as="geometry">
            <mxPoint as="offset" />
          </mxGeometry>
        </mxCell>
        <mxCell id="dJm7QAppJB-XsxKHxpHP-94" value="" style="endArrow=none;html=1;rounded=0;strokeColor=#08612E;strokeWidth=6;entryX=1;entryY=1;entryDx=0;entryDy=0;exitX=0;exitY=0;exitDx=0;exitDy=0;" edge="1" parent="1" source="dJm7QAppJB-XsxKHxpHP-3" target="dJm7QAppJB-XsxKHxpHP-15">
          <mxGeometry width="50" height="50" relative="1" as="geometry">
            <mxPoint x="422" y="1062" as="sourcePoint" />
            <mxPoint x="118" y="878" as="targetPoint" />
          </mxGeometry>
        </mxCell>
        <mxCell id="dJm7QAppJB-XsxKHxpHP-95" value="&lt;font style=&quot;font-size: 16px;&quot;&gt;&lt;b&gt;7&lt;/b&gt;&lt;/font&gt;" style="edgeLabel;html=1;align=center;verticalAlign=middle;resizable=0;points=[];" vertex="1" connectable="0" parent="dJm7QAppJB-XsxKHxpHP-94">
          <mxGeometry x="0.0413" y="-2" relative="1" as="geometry">
            <mxPoint as="offset" />
          </mxGeometry>
        </mxCell>
        <mxCell id="dJm7QAppJB-XsxKHxpHP-96" value="" style="endArrow=none;html=1;rounded=0;strokeColor=#08612E;strokeWidth=6;entryX=1;entryY=0;entryDx=0;entryDy=0;exitX=0;exitY=0.5;exitDx=0;exitDy=0;" edge="1" parent="1" source="dJm7QAppJB-XsxKHxpHP-11" target="dJm7QAppJB-XsxKHxpHP-6">
          <mxGeometry width="50" height="50" relative="1" as="geometry">
            <mxPoint x="1210" y="170" as="sourcePoint" />
            <mxPoint x="1251" y="330" as="targetPoint" />
          </mxGeometry>
        </mxCell>
        <mxCell id="dJm7QAppJB-XsxKHxpHP-97" value="&lt;font style=&quot;font-size: 16px;&quot;&gt;&lt;b&gt;6&lt;/b&gt;&lt;/font&gt;" style="edgeLabel;html=1;align=center;verticalAlign=middle;resizable=0;points=[];" vertex="1" connectable="0" parent="dJm7QAppJB-XsxKHxpHP-96">
          <mxGeometry x="0.0413" y="-2" relative="1" as="geometry">
            <mxPoint as="offset" />
          </mxGeometry>
        </mxCell>
        <mxCell id="dJm7QAppJB-XsxKHxpHP-98" value="" style="endArrow=none;html=1;rounded=0;strokeColor=#08612E;strokeWidth=6;entryX=1;entryY=1;entryDx=0;entryDy=0;exitX=0;exitY=0;exitDx=0;exitDy=0;" edge="1" parent="1" source="dJm7QAppJB-XsxKHxpHP-19" target="dJm7QAppJB-XsxKHxpHP-16">
          <mxGeometry width="50" height="50" relative="1" as="geometry">
            <mxPoint x="250" y="610" as="sourcePoint" />
            <mxPoint x="250" y="250" as="targetPoint" />
          </mxGeometry>
        </mxCell>
        <mxCell id="dJm7QAppJB-XsxKHxpHP-99" value="&lt;font style=&quot;font-size: 16px;&quot;&gt;&lt;b&gt;6&lt;/b&gt;&lt;/font&gt;" style="edgeLabel;html=1;align=center;verticalAlign=middle;resizable=0;points=[];" vertex="1" connectable="0" parent="dJm7QAppJB-XsxKHxpHP-98">
          <mxGeometry x="0.0413" y="-2" relative="1" as="geometry">
            <mxPoint as="offset" />
          </mxGeometry>
        </mxCell>
        <mxCell id="dJm7QAppJB-XsxKHxpHP-100" value="&lt;span style=&quot;font-size: 20px;&quot;&gt;&lt;b&gt;0&lt;/b&gt;&lt;/span&gt;" style="shape=mxgraph.signs.transportation.car_1;html=1;pointerEvents=1;fillColor=#9C6616;strokeColor=none;verticalLabelPosition=middle;verticalAlign=top;align=center;direction=east;horizontal=1;labelPosition=center;" vertex="1" parent="1">
          <mxGeometry x="420" y="1020" width="40" height="40" as="geometry" />
        </mxCell>
        <mxCell id="dJm7QAppJB-XsxKHxpHP-101" value="&lt;span style=&quot;font-size: 20px;&quot;&gt;&lt;b&gt;1&lt;/b&gt;&lt;/span&gt;" style="shape=mxgraph.signs.transportation.car_1;html=1;pointerEvents=1;fillColor=#9C6616;strokeColor=none;verticalLabelPosition=middle;verticalAlign=top;align=center;direction=east;horizontal=1;labelPosition=center;" vertex="1" parent="1">
          <mxGeometry x="620" y="980" width="40" height="40" as="geometry" />
        </mxCell>
        <mxCell id="dJm7QAppJB-XsxKHxpHP-102" value="&lt;span style=&quot;font-size: 20px;&quot;&gt;&lt;b&gt;2&lt;/b&gt;&lt;/span&gt;" style="shape=mxgraph.signs.transportation.car_1;html=1;pointerEvents=1;fillColor=#9C6616;strokeColor=none;verticalLabelPosition=middle;verticalAlign=top;align=center;direction=east;horizontal=1;labelPosition=center;" vertex="1" parent="1">
          <mxGeometry x="827" y="820" width="40" height="40" as="geometry" />
        </mxCell>
        <mxCell id="dJm7QAppJB-XsxKHxpHP-103" value="&lt;span style=&quot;font-size: 20px;&quot;&gt;&lt;b&gt;3&lt;/b&gt;&lt;/span&gt;" style="shape=mxgraph.signs.transportation.car_1;html=1;pointerEvents=1;fillColor=#9C6616;strokeColor=none;verticalLabelPosition=middle;verticalAlign=top;align=center;direction=east;horizontal=1;labelPosition=center;" vertex="1" parent="1">
          <mxGeometry x="550" y="670" width="40" height="40" as="geometry" />
        </mxCell>
        <mxCell id="dJm7QAppJB-XsxKHxpHP-104" value="&lt;span style=&quot;font-size: 20px;&quot;&gt;&lt;b&gt;4&lt;/b&gt;&lt;/span&gt;" style="shape=mxgraph.signs.transportation.car_1;html=1;pointerEvents=1;fillColor=#9C6616;strokeColor=none;verticalLabelPosition=middle;verticalAlign=top;align=center;direction=east;horizontal=1;labelPosition=center;" vertex="1" parent="1">
          <mxGeometry x="500" y="430" width="40" height="40" as="geometry" />
        </mxCell>
        <mxCell id="dJm7QAppJB-XsxKHxpHP-105" value="&lt;span style=&quot;font-size: 20px;&quot;&gt;&lt;b&gt;6&lt;/b&gt;&lt;/span&gt;" style="shape=mxgraph.signs.transportation.car_1;html=1;pointerEvents=1;fillColor=#9C6616;strokeColor=none;verticalLabelPosition=middle;verticalAlign=top;align=center;direction=east;horizontal=1;labelPosition=center;" vertex="1" parent="1">
          <mxGeometry x="740" y="420" width="40" height="40" as="geometry" />
        </mxCell>
        <mxCell id="dJm7QAppJB-XsxKHxpHP-106" value="&lt;span style=&quot;font-size: 20px;&quot;&gt;&lt;b&gt;5&lt;/b&gt;&lt;/span&gt;" style="shape=mxgraph.signs.transportation.car_1;html=1;pointerEvents=1;fillColor=#9C6616;strokeColor=none;verticalLabelPosition=middle;verticalAlign=top;align=center;direction=east;horizontal=1;labelPosition=center;" vertex="1" parent="1">
          <mxGeometry x="740" y="490" width="40" height="40" as="geometry" />
        </mxCell>
        <mxCell id="dJm7QAppJB-XsxKHxpHP-107" value="&lt;span style=&quot;font-size: 20px;&quot;&gt;&lt;b&gt;7&lt;/b&gt;&lt;/span&gt;" style="shape=mxgraph.signs.transportation.car_1;html=1;pointerEvents=1;fillColor=#9C6616;strokeColor=none;verticalLabelPosition=middle;verticalAlign=top;align=center;direction=east;horizontal=1;labelPosition=center;" vertex="1" parent="1">
          <mxGeometry x="990" y="340" width="40" height="40" as="geometry" />
        </mxCell>
      </root>
    </mxGraphModel>
  </diagram>
</mxfile>
